0
SECTION
2
HEADER
9
$INSUNITS
70
4
9
$ACADVER
1
AC1014
9
$HANDSEED
5
FFFF
0
ENDSEC
0
SECTION
2
TABLES
0
TABLE
2
VPORT
5
8
100
AcDbSymbolTable
0
ENDTAB
0
TABLE
2
LTYPE
5
5
100
AcDbSymbolTable
0
LTYPE
5
14
100
AcDbSymbolTableRecord
100
AcDbLinetypeTableRecord
2
BYBLOCK
70
0
0
LTYPE
5
15
100
AcDbSymbolTableRecord
100
AcDbLinetypeTableRecord
2
BYLAYER
70
0
0
ENDTAB
0
TABLE
2
LAYER
5
2
100
AcDbSymbolTable
70
2
0
LAYER
5
50
100
AcDbSymbolTableRecord
100
AcDbLayerTableRecord
2
0
70
0
6
CONTINUOUS
0
ENDTAB
0
TABLE
2
STYLE
5
3
100
AcDbSymbolTable
70
1
0
STYLE
5
11
100
AcDbSymbolTableRecord
100
AcDbTextStyleTableRecord
2
STANDARD
70
0
0
ENDTAB
0
TABLE
2
VIEW
5
6
100
AcDbSymbolTable
70
0
0
ENDTAB
0
TABLE
2
UCS
5
7
100
AcDbSymbolTable
70
0
0
ENDTAB
0
TABLE
2
APPID
5
9
100
AcDbSymbolTable
70
2
0
APPID
5
12
100
AcDbSymbolTableRecord
100
AcDbRegAppTableRecord
2
ACAD
70
0
0
ENDTAB
0
TABLE
2
DIMSTYLE
5
A
100
AcDbSymbolTable
70
1
0
ENDTAB
0
TABLE
2
BLOCK_RECORD
5
1
100
AcDbSymbolTable
70
1
0
BLOCK_RECORD
5
1F
100
AcDbSymbolTableRecord
100
AcDbBlockTableRecord
2
*MODEL_SPACE
0
BLOCK_RECORD
5
1B
100
AcDbSymbolTableRecord
100
AcDbBlockTableRecord
2
*PAPER_SPACE
0
ENDTAB
0
ENDSEC
0
SECTION
2
BLOCKS
0
BLOCK
5
20
100
AcDbEntity
100
AcDbBlockBegin
2
*MODEL_SPACE
0
ENDBLK
5
21
100
AcDbEntity
100
AcDbBlockEnd
0
BLOCK
5
1C
100
AcDbEntity
100
AcDbBlockBegin
2
*PAPER_SPACE
0
ENDBLK
5
1D
100
AcDbEntity
100
AcDbBlockEnd
0
ENDSEC
0
SECTION
2
ENTITIES
0
LWPOLYLINE
5
100
100
AcDbEntity
8
0
100
AcDbPolyline
90
40
70
1
43
0.0
10
3.5999999999994969
20
35.714285714285708
10
3.5999999999994969
20
42.857142857142861
10
-5.0348614166750849e-13
20
42.857142857142861
10
-4.4703483581542969e-07
20
50
10
192.19999955296515
20
50
10
192.19999973177906
20
42.857142857142861
10
188.59999973177906
20
42.857142857142861
10
188.59999973177906
20
35.714285714285708
10
192.19999973177906
20
35.714285714285708
10
192.2000000894069
20
28.57142857142858
10
188.6000000894069
20
28.57142857142858
10
188.6000000894069
20
21.428571428571427
10
192.2000000894069
20
21.428571428571427
10
192.20000044703477
20
14.285714285714297
10
188.60000044703474
20
14.285714285714297
10
188.60000044703474
20
7.1428571428571432
10
192.20000044703477
20
7.1428571428571432
10
192.20000038266181
20
3.6000000000000005
10
164.74285714285713
20
3.6000000000000005
10
164.74285714285713
20
0
10
137.28571428571428
20
0
10
137.28571428571428
20
3.6000000000000005
10
109.82857142857142
20
3.6000000000000005
10
109.82857142857142
20
0
10
82.371428571428567
20
0
10
82.371428571428567
20
3.6000000000000005
10
54.914285714285711
20
3.6000000000000005
10
54.914285714285711
20
0
10
27.457142857142856
20
0
10
27.457142857142856
20
3.6000000000000005
10
-4.4703482249275339e-07
20
3.6000000000000032
10
-5.0348614166750849e-13
20
7.1428571428571432
10
3.5999999999994969
20
7.1428571428571432
10
3.5999999999994969
20
14.285714285714297
10
-5.0348614166750849e-13
20
14.285714285714297
10
-5.0348614166750849e-13
20
21.428571428571427
10
3.5999999999994969
20
21.428571428571427
10
3.5999999999994969
20
28.57142857142858
10
-5.0348614166750849e-13
20
28.57142857142858
10
-5.0348614166750849e-13
20
35.714285714285708
0
ENDSEC
0
SECTION
2
OBJECTS
0
DICTIONARY
5
C
100
AcDbDictionary
3
ACAD_GROUP
350
D
3
ACAD_MLINESTYLE
350
17
0
DICTIONARY
5
D
100
AcDbDictionary
0
DICTIONARY
5
1A
330
C
100
AcDbDictionary
0
DICTIONARY
5
17
100
AcDbDictionary
0
ENDSEC
0
EOF
