0
SECTION
2
HEADER
9
$INSUNITS
70
4
9
$ACADVER
1
AC1014
9
$HANDSEED
5
FFFF
0
ENDSEC
0
SECTION
2
TABLES
0
TABLE
2
VPORT
5
8
100
AcDbSymbolTable
0
ENDTAB
0
TABLE
2
LTYPE
5
5
100
AcDbSymbolTable
0
LTYPE
5
14
100
AcDbSymbolTableRecord
100
AcDbLinetypeTableRecord
2
BYBLOCK
70
0
0
LTYPE
5
15
100
AcDbSymbolTableRecord
100
AcDbLinetypeTableRecord
2
BYLAYER
70
0
0
ENDTAB
0
TABLE
2
LAYER
5
2
100
AcDbSymbolTable
70
2
0
LAYER
5
50
100
AcDbSymbolTableRecord
100
AcDbLayerTableRecord
2
0
70
0
6
CONTINUOUS
0
ENDTAB
0
TABLE
2
STYLE
5
3
100
AcDbSymbolTable
70
1
0
STYLE
5
11
100
AcDbSymbolTableRecord
100
AcDbTextStyleTableRecord
2
STANDARD
70
0
0
ENDTAB
0
TABLE
2
VIEW
5
6
100
AcDbSymbolTable
70
0
0
ENDTAB
0
TABLE
2
UCS
5
7
100
AcDbSymbolTable
70
0
0
ENDTAB
0
TABLE
2
APPID
5
9
100
AcDbSymbolTable
70
2
0
APPID
5
12
100
AcDbSymbolTableRecord
100
AcDbRegAppTableRecord
2
ACAD
70
0
0
ENDTAB
0
TABLE
2
DIMSTYLE
5
A
100
AcDbSymbolTable
70
1
0
ENDTAB
0
TABLE
2
BLOCK_RECORD
5
1
100
AcDbSymbolTable
70
1
0
BLOCK_RECORD
5
1F
100
AcDbSymbolTableRecord
100
AcDbBlockTableRecord
2
*MODEL_SPACE
0
BLOCK_RECORD
5
1B
100
AcDbSymbolTableRecord
100
AcDbBlockTableRecord
2
*PAPER_SPACE
0
ENDTAB
0
ENDSEC
0
SECTION
2
BLOCKS
0
BLOCK
5
20
100
AcDbEntity
100
AcDbBlockBegin
2
*MODEL_SPACE
0
ENDBLK
5
21
100
AcDbEntity
100
AcDbBlockEnd
0
BLOCK
5
1C
100
AcDbEntity
100
AcDbBlockBegin
2
*PAPER_SPACE
0
ENDBLK
5
1D
100
AcDbEntity
100
AcDbBlockEnd
0
ENDSEC
0
SECTION
2
ENTITIES
0
LWPOLYLINE
5
100
100
AcDbEntity
8
0
100
AcDbPolyline
90
4
70
1
43
0.0
10
1.1268763699945339e-13
20
-9.3857142857142861
10
-3.5999999999998877
20
-9.3857142857142861
10
-3.5999999999998167
20
-18.771428571428572
10
1.8374191057546341e-13
20
-18.771428571428572
0
LWPOLYLINE
5
101
100
AcDbEntity
8
0
100
AcDbPolyline
90
4
70
1
43
0.0
10
2.5479618415147343e-13
20
-28.157142857142858
10
-3.5999999999997456
20
-28.157142857142858
10
-3.5999999999996746
20
-37.542857142857144
10
3.2585045772748344e-13
20
-37.542857142857144
0
LWPOLYLINE
5
102
100
AcDbEntity
8
0
100
AcDbPolyline
90
4
70
1
43
0.0
10
3.9690473130349346e-13
20
-46.928571428571431
10
-3.5999999999996035
20
-46.928571428571431
10
-3.5999999999995325
20
-56.314285714285717
10
4.6795900487950348e-13
20
-56.314285714285717
0
LWPOLYLINE
5
103
100
AcDbEntity
8
0
100
AcDbPolyline
90
4
70
1
43
0.0
10
-192.19999999999999
20
-9.3857142857142861
10
-192.19999999999999
20
-18.771428571428572
10
-188.59999999999999
20
-18.771428571428572
10
-188.59999999999999
20
-9.3857142857142861
0
LWPOLYLINE
5
104
100
AcDbEntity
8
0
100
AcDbPolyline
90
4
70
1
43
0.0
10
-192.19999999999999
20
-28.157142857142858
10
-192.19999999999999
20
-37.542857142857144
10
-188.59999999999999
20
-37.542857142857144
10
-188.59999999999999
20
-28.157142857142858
0
LWPOLYLINE
5
105
100
AcDbEntity
8
0
100
AcDbPolyline
90
4
70
1
43
0.0
10
-192.19999999999999
20
-46.928571428571431
10
-192.19999999999999
20
-56.314285714285717
10
-188.59999999999999
20
-56.314285714285717
10
-188.59999999999999
20
-46.928571428571431
0
LWPOLYLINE
5
106
100
AcDbEntity
8
0
100
AcDbPolyline
90
4
70
1
43
0.0
10
-27.457142857142856
20
-3.5999999999999917
10
-27.457142857142856
20
8.8817841970012523e-15
10
-54.914285714285711
20
1.7763568394002505e-14
10
-54.914285714285711
20
-3.5999999999999828
0
LWPOLYLINE
5
107
100
AcDbEntity
8
0
100
AcDbPolyline
90
4
70
1
43
0.0
10
-82.371428571428567
20
-3.5999999999999739
10
-82.371428571428567
20
2.6645352591003757e-14
10
-109.82857142857142
20
2.6645352591003757e-14
10
-109.82857142857142
20
-3.5999999999999739
0
LWPOLYLINE
5
108
100
AcDbEntity
8
0
100
AcDbPolyline
90
4
70
1
43
0.0
10
-137.28571428571428
20
-3.599999999999965
10
-137.28571428571428
20
3.5527136788005009e-14
10
-164.74285714285713
20
4.4408920985006262e-14
10
-164.74285714285713
20
-3.5999999999999561
0
LWPOLYLINE
5
109
100
AcDbEntity
8
0
100
AcDbPolyline
90
4
70
1
43
0.0
10
-137.28571428571428
20
-65.699999999999989
10
-137.28571428571428
20
-62.09999999999998
10
-164.74285714285713
20
-62.09999999999998
10
-164.74285714285713
20
-65.699999999999989
0
LWPOLYLINE
5
110
100
AcDbEntity
8
0
100
AcDbPolyline
90
4
70
1
43
0.0
10
-82.371428571428567
20
-65.699999999999989
10
-82.371428571428567
20
-62.099999999999994
10
-109.82857142857142
20
-62.099999999999994
10
-109.82857142857142
20
-65.699999999999989
0
LWPOLYLINE
5
111
100
AcDbEntity
8
0
100
AcDbPolyline
90
4
70
1
43
0.0
10
-27.457142857142856
20
-65.700000000000003
10
-27.457142857142856
20
-62.100000000000001
10
-54.914285714285711
20
-62.100000000000001
10
-54.914285714285711
20
-65.700000000000003
0
LWPOLYLINE
5
112
100
AcDbEntity
8
0
100
AcDbPolyline
90
4
70
1
43
0.0
10
-194.19999999999999
20
2.0000000000000444
10
1.9999999999999929
20
2.0000000000000018
10
2.0000000000005258
20
-67.700000000000003
10
-194.19999999999999
20
-67.699999999999974
0
ENDSEC
0
SECTION
2
OBJECTS
0
DICTIONARY
5
C
100
AcDbDictionary
3
ACAD_GROUP
350
D
3
ACAD_MLINESTYLE
350
17
0
DICTIONARY
5
D
100
AcDbDictionary
0
DICTIONARY
5
1A
330
C
100
AcDbDictionary
0
DICTIONARY
5
17
100
AcDbDictionary
0
ENDSEC
0
EOF
