0
SECTION
2
HEADER
9
$INSUNITS
70
4
9
$ACADVER
1
AC1014
9
$HANDSEED
5
FFFF
0
ENDSEC
0
SECTION
2
TABLES
0
TABLE
2
VPORT
5
8
100
AcDbSymbolTable
0
ENDTAB
0
TABLE
2
LTYPE
5
5
100
AcDbSymbolTable
0
LTYPE
5
14
100
AcDbSymbolTableRecord
100
AcDbLinetypeTableRecord
2
BYBLOCK
70
0
0
LTYPE
5
15
100
AcDbSymbolTableRecord
100
AcDbLinetypeTableRecord
2
BYLAYER
70
0
0
ENDTAB
0
TABLE
2
LAYER
5
2
100
AcDbSymbolTable
70
2
0
LAYER
5
50
100
AcDbSymbolTableRecord
100
AcDbLayerTableRecord
2
0
70
0
6
CONTINUOUS
0
ENDTAB
0
TABLE
2
STYLE
5
3
100
AcDbSymbolTable
70
1
0
STYLE
5
11
100
AcDbSymbolTableRecord
100
AcDbTextStyleTableRecord
2
STANDARD
70
0
0
ENDTAB
0
TABLE
2
VIEW
5
6
100
AcDbSymbolTable
70
0
0
ENDTAB
0
TABLE
2
UCS
5
7
100
AcDbSymbolTable
70
0
0
ENDTAB
0
TABLE
2
APPID
5
9
100
AcDbSymbolTable
70
2
0
APPID
5
12
100
AcDbSymbolTableRecord
100
AcDbRegAppTableRecord
2
ACAD
70
0
0
ENDTAB
0
TABLE
2
DIMSTYLE
5
A
100
AcDbSymbolTable
70
1
0
ENDTAB
0
TABLE
2
BLOCK_RECORD
5
1
100
AcDbSymbolTable
70
1
0
BLOCK_RECORD
5
1F
100
AcDbSymbolTableRecord
100
AcDbBlockTableRecord
2
*MODEL_SPACE
0
BLOCK_RECORD
5
1B
100
AcDbSymbolTableRecord
100
AcDbBlockTableRecord
2
*PAPER_SPACE
0
ENDTAB
0
ENDSEC
0
SECTION
2
BLOCKS
0
BLOCK
5
20
100
AcDbEntity
100
AcDbBlockBegin
2
*MODEL_SPACE
0
ENDBLK
5
21
100
AcDbEntity
100
AcDbBlockEnd
0
BLOCK
5
1C
100
AcDbEntity
100
AcDbBlockBegin
2
*PAPER_SPACE
0
ENDBLK
5
1D
100
AcDbEntity
100
AcDbBlockEnd
0
ENDSEC
0
SECTION
2
ENTITIES
0
LWPOLYLINE
5
100
100
AcDbEntity
8
0
100
AcDbPolyline
90
40
70
1
43
0.0
10
62.099999999999994
20
3.6000000000000005
10
56.314285714285717
20
3.6000000000000005
10
56.314285714285717
20
0
10
46.928571428571431
20
0
10
46.928571428571431
20
3.6000000000000005
10
37.542857142857144
20
3.6000000000000005
10
37.542857142857144
20
0
10
28.157142857142858
20
0
10
28.157142857142858
20
3.6000000000000005
10
18.771428571428572
20
3.6000000000000005
10
18.771428571428572
20
0
10
9.3857142857142861
20
0
10
9.3857142857142861
20
3.6000000000000005
10
3.5999999999999561
20
3.5999999999999988
10
3.5999999999999561
20
7.1428571428571441
10
-4.4408920985006262e-14
20
7.1428571428571432
10
-4.4408920985006262e-14
20
14.285714285714285
10
3.5999999999999561
20
14.285714285714285
10
3.5999999999999561
20
21.428571428571427
10
-4.4408920985006262e-14
20
21.428571428571427
10
-4.4408920985006262e-14
20
28.571428571428569
10
3.5999999999999561
20
28.571428571428569
10
3.5999999999999561
20
35.714285714285708
10
-4.4408920985006262e-14
20
35.714285714285708
10
-4.4408920985006262e-14
20
42.857142857142847
10
3.5999999999999561
20
42.857142857142847
10
3.5999999999999588
20
50
10
62.099999999999994
20
50
10
62.099999999999994
20
42.857142857142861
10
65.699999999999989
20
42.857142857142847
10
65.699999999999989
20
35.714285714285708
10
62.099999999999994
20
35.714285714285708
10
62.099999999999994
20
28.57142857142858
10
65.699999999999989
20
28.571428571428569
10
65.699999999999989
20
21.428571428571427
10
62.099999999999994
20
21.428571428571427
10
62.099999999999994
20
14.285714285714297
10
65.699999999999989
20
14.285714285714285
10
65.699999999999989
20
7.1428571428571432
10
62.099999999999994
20
7.1428571428571432
0
ENDSEC
0
SECTION
2
OBJECTS
0
DICTIONARY
5
C
100
AcDbDictionary
3
ACAD_GROUP
350
D
3
ACAD_MLINESTYLE
350
17
0
DICTIONARY
5
D
100
AcDbDictionary
0
DICTIONARY
5
1A
330
C
100
AcDbDictionary
0
DICTIONARY
5
17
100
AcDbDictionary
0
ENDSEC
0
EOF
