999
dxfrw 0.6.3
  0
SECTION
  2
HEADER
  9
$ACADVER
  1
AC1021
  9
$DWGCODEPAGE
  3
ANSI_1252
  9
$INSBASE
 10
0
 20
0
 30
0
  9
$EXTMIN
 10
-74.99999942524093
 20
-102.7242709171752
 30
0
  9
$EXTMAX
 10
478.7697496570797
 20
200
 30
0
  9
$LIMMIN
 10
0
 20
0
  9
$LIMMAX
 10
420
 20
297
  9
$ORTHOMODE
 70
    0
  9
$REGENMODE
 70
    1
  9
$FILLMODE
 70
    1
  9
$QTEXTMODE
 70
    0
  9
$MIRRTEXT
 70
    0
  9
$LTSCALE
 40
1
  9
$ATTMODE
 70
    0
  9
$TEXTSIZE
 40
2.5
  9
$TRACEWID
 40
15.68
  9
$TEXTSTYLE
  7
STANDARD
  9
$CLAYER
  8
0
  9
$CELTYPE
  6
BYLAYER
  9
$CECOLOR
 62
  256
  9
$CELTSCALE
 40
1
  9
$DISPSILH
 70
    0
  9
$DIMSCALE
 40
2.5
  9
$DIMASZ
 40
2.5
  9
$DIMEXO
 40
0.625
  9
$DIMDLI
 40
3.75
  9
$DIMRND
 40
0
  9
$DIMDLE
 40
0
  9
$DIMEXE
 40
1.25
  9
$DIMTP
 40
0
  9
$DIMTM
 40
0
  9
$DIMTXT
 40
2.5
  9
$DIMCEN
 40
2.5
  9
$DIMTSZ
 40
0
  9
$DIMTOL
 70
    0
  9
$DIMLIM
 70
    0
  9
$DIMTIH
 70
    0
  9
$DIMTOH
 70
    0
  9
$DIMSE1
 70
    0
  9
$DIMSE2
 70
    0
  9
$DIMTAD
 70
    1
  9
$DIMZIN
 70
    8
  9
$DIMBLK
  1

  9
$DIMASO
 70
    1
  9
$DIMSHO
 70
    1
  9
$DIMPOST
  1

  9
$DIMAPOST
  1

  9
$DIMALT
 70
    0
  9
$DIMALTD
 70
    3
  9
$DIMALTF
 40
0.03937
  9
$DIMLFAC
 40
1
  9
$DIMTOFL
 70
    1
  9
$DIMTVP
 40
0
  9
$DIMTIX
 70
    0
  9
$DIMSOXD
 70
    0
  9
$DIMSAH
 70
    0
  9
$DIMBLK1
  1

  9
$DIMBLK2
  1

  9
$DIMSTYLE
  2
Standard
  9
$DIMCLRD
 70
    0
  9
$DIMCLRE
 70
    0
  9
$DIMCLRT
 70
    0
  9
$DIMTFAC
 40
1
  9
$DIMGAP
 40
0.625
  9
$DIMJUST
 70
    0
  9
$DIMSD1
 70
    0
  9
$DIMSD2
 70
    0
  9
$DIMTOLJ
 70
    0
  9
$DIMTZIN
 70
    8
  9
$DIMALTZ
 70
    0
  9
$DIMALTTZ
 70
    0
  9
$DIMUPT
 70
    0
  9
$DIMDEC
 70
    2
  9
$DIMTDEC
 70
    2
  9
$DIMALTU
 70
    2
  9
$DIMALTTD
 70
    3
  9
$DIMTXSTY
  7
STANDARD
  9
$DIMAUNIT
 70
    0
  9
$DIMADEC
 70
    0
  9
$DIMALTRND
 40
0
  9
$DIMAZIN
 70
    0
  9
$DIMDSEP
 70
   44
  9
$DIMATFIT
 70
    3
  9
$DIMFRAC
 70
    0
  9
$DIMLDRBLK
  1
STANDARD
  9
$DIMLUNIT
 70
    2
  9
$DIMLWD
 70
   -2
  9
$DIMLWE
 70
   -2
  9
$DIMTMOVE
 70
    0
  9
$DIMFXL
 40
1
  9
$DIMFXLON
 70
    0
  9
$DIMJOGANG
 40
0.7854
  9
$DIMTFILL
 70
    0
  9
$DIMTFILLCLR
 70
    0
  9
$DIMARCSYM
 70
    0
  9
$DIMLTYPE
  6

  9
$DIMLTEX1
  6

  9
$DIMLTEX2
  6

  9
$LUNITS
 70
    2
  9
$LUPREC
 70
    4
  9
$SKETCHINC
 40
1
  9
$FILLETRAD
 40
0
  9
$AUNITS
 70
    0
  9
$AUPREC
 70
    2
  9
$MENU
  1
.
  9
$ELEVATION
 40
0
  9
$PELEVATION
 40
0
  9
$THICKNESS
 40
0
  9
$LIMCHECK
 70
    0
  9
$CHAMFERA
 40
0
  9
$CHAMFERB
 40
0
  9
$CHAMFERC
 40
0
  9
$CHAMFERD
 40
0
  9
$SKPOLY
 70
    0
  9
$USRTIMER
 70
    1
  9
$ANGBASE
 50
0
  9
$ANGDIR
 70
    0
  9
$PDMODE
 70
   34
  9
$PDSIZE
 40
0
  9
$PLINEWID
 40
0
  9
$SPLFRAME
 70
    0
  9
$SPLINETYPE
 70
    2
  9
$SPLINESEGS
 70
    8
  9
$HANDSEED
  5
20000
  9
$SURFTAB1
 70
    6
  9
$SURFTAB2
 70
    6
  9
$SURFTYPE
 70
    6
  9
$SURFU
 70
    6
  9
$SURFV
 70
    6
  9
$UCSBASE
  2

  9
$UCSNAME
  2

  9
$UCSORG
 10
0
 20
0
 30
0
  9
$UCSXDIR
 10
1
 20
0
 30
0
  9
$UCSYDIR
 10
0
 20
1
 30
0
  9
$UCSORTHOREF
  2

  9
$UCSORTHOVIEW
 70
    0
  9
$UCSORGTOP
 10
0
 20
0
 30
0
  9
$UCSORGBOTTOM
 10
0
 20
0
 30
0
  9
$UCSORGLEFT
 10
0
 20
0
 30
0
  9
$UCSORGRIGHT
 10
0
 20
0
 30
0
  9
$UCSORGFRONT
 10
0
 20
0
 30
0
  9
$UCSORGBACK
 10
0
 20
0
 30
0
  9
$PUCSBASE
  2

  9
$PUCSNAME
  2

  9
$PUCSORG
 10
0
 20
0
 30
0
  9
$PUCSXDIR
 10
1
 20
0
 30
0
  9
$PUCSYDIR
 10
0
 20
1
 30
0
  9
$PUCSORTHOREF
  2

  9
$PUCSORTHOVIEW
 70
    0
  9
$PUCSORGTOP
 10
0
 20
0
 30
0
  9
$PUCSORGBOTTOM
 10
0
 20
0
 30
0
  9
$PUCSORGLEFT
 10
0
 20
0
 30
0
  9
$PUCSORGRIGHT
 10
0
 20
0
 30
0
  9
$PUCSORGFRONT
 10
0
 20
0
 30
0
  9
$PUCSORGBACK
 10
0
 20
0
 30
0
  9
$USERI1
 70
    0
  9
$USERI2
 70
    0
  9
$USERI3
 70
    0
  9
$USERI4
 70
    0
  9
$USERI5
 70
    0
  9
$USERR1
 40
0
  9
$USERR2
 40
0
  9
$USERR3
 40
0
  9
$USERR4
 40
0
  9
$USERR5
 40
0
  9
$WORLDVIEW
 70
    1
  9
$SHADEDGE
 70
    3
  9
$SHADEDIF
 70
   70
  9
$TILEMODE
 70
    1
  9
$MAXACTVP
 70
   64
  9
$PINSBASE
 10
0
 20
0
 30
0
  9
$PLIMCHECK
 70
    0
  9
$PEXTMIN
 10
0
 20
0
 30
0
  9
$PEXTMAX
 10
0
 20
0
 30
0
  9
$SNAPSTYLE
 70
    0
  9
$PLIMMIN
 10
0
 20
0
  9
$PLIMMAX
 10
210
 20
297
  9
$UNITMODE
 70
    0
  9
$VISRETAIN
 70
    1
  9
$PLINEGEN
 70
    0
  9
$PSLTSCALE
 70
    1
  9
$TREEDEPTH
 70
 3020
  9
$CMLSTYLE
  2
Standard
  9
$CMLJUST
 70
    0
  9
$CMLSCALE
 40
20
  9
$PROXYGRAPHICS
 70
    1
  9
$MEASUREMENT
 70
    1
  9
$CELWEIGHT
370
   -1
  9
$ENDCAPS
280
    0
  9
$JOINSTYLE
280
    0
  9
$LWDISPLAY
290
    0
  9
$INSUNITS
 70
    4
  9
$HYPERLINKBASE
  1

  9
$STYLESHEET
  1

  9
$XEDIT
290
    1
  9
$CEPSNTYPE
380
    0
  9
$PSTYLEMODE
290
    1
  9
$EXTNAMES
290
    1
  9
$PSVPSCALE
 40
1
  9
$OLESTARTUP
290
    0
  9
$SORTENTS
280
  127
  9
$INDEXCTL
280
    0
  9
$HIDETEXT
280
    1
  9
$XCLIPFRAME
290
    0
  9
$HALOGAP
280
    0
  9
$OBSCOLOR
 70
  257
  9
$OBSLTYPE
280
    0
  9
$INTERSECTIONDISPLAY
280
    0
  9
$INTERSECTIONCOLOR
 70
  257
  9
$DIMASSOC
280
    1
  9
$PROJECTNAME
  1

  9
$CAMERADISPLAY
290
    0
  9
$LENSLENGTH
 40
50
  9
$CAMERAHEIGHT
 40
0
  9
$STEPSPERSEC
 40
2
  9
$STEPSIZE
 40
50
  9
$3DDWFPREC
 40
2
  9
$PSOLWIDTH
 40
5
  9
$PSOLHEIGHT
 40
80
  9
$LOFTANG1
 40
1.570796326794897
  9
$LOFTANG2
 40
1.570796326794897
  9
$LOFTMAG1
 40
0
  9
$LOFTMAG2
 40
0
  9
$LOFTPARAM
 70
    7
  9
$LOFTNORMALS
280
    1
  9
$LATITUDE
 40
1
  9
$LONGITUDE
 40
1
  9
$NORTHDIRECTION
 40
0
  9
$TIMEZONE
 70
-8000
  9
$LIGHTGLYPHDISPLAY
280
    1
  9
$TILEMODELIGHTSYNCH
280
    1
  9
$SOLIDHIST
280
    1
  9
$SHOWHIST
280
    1
  9
$DWFFRAME
280
    2
  9
$DGNFRAME
280
    0
  9
$REALWORLDSCALE
290
    1
  9
$INTERFERECOLOR
 62
    1
  9
$CSHADOW
280
    0
  9
$SHADOWPLANELOCATION
 40
0
  0
ENDSEC
  0
SECTION
  2
CLASSES
  0
ENDSEC
  0
SECTION
  2
TABLES
  0
TABLE
  2
VPORT
  5
8
330
0
100
AcDbSymbolTable
 70
    1
  0
VPORT
  5
31
330
2
100
AcDbSymbolTableRecord
100
AcDbViewportTableRecord
  2
*ACTIVE
 70
    0
 10
0
 20
0
 11
1
 21
1
 12
285.9820818636834
 22
114.9628966960322
 13
0
 23
0
 14
10
 24
10
 15
10
 25
10
 16
0
 26
0
 36
1
 17
0
 27
0
 37
0
 40
378.6174738294945
 41
1.963613550815558
 42
50
 43
0
 44
0
 50
0
 51
0
 71
    0
 72
  100
 73
    1
 74
    3
 75
    0
 76
    1
 77
    0
 78
    0
281
    0
 65
    1
110
0
120
0
130
0
111
1
121
0
131
0
112
0
122
1
132
0
 79
    0
146
0
348
10020
 60
    7
 61
    5
292
1
282
    1
141
0
142
0
 63
  250
421
3358443
  0
ENDTAB
  0
TABLE
  2
LTYPE
  5
5
330
0
100
AcDbSymbolTable
 70
    4
  0
LTYPE
  5
14
330
5
100
AcDbSymbolTableRecord
100
AcDbLinetypeTableRecord
  2
ByBlock
 70
    0
  3

 72
   65
 73
    0
 40
0
  0
LTYPE
  5
15
330
5
100
AcDbSymbolTableRecord
100
AcDbLinetypeTableRecord
  2
ByLayer
 70
    0
  3

 72
   65
 73
    0
 40
0
  0
LTYPE
  5
16
330
5
100
AcDbSymbolTableRecord
100
AcDbLinetypeTableRecord
  2
Continuous
 70
    0
  3
Solid line
 72
   65
 73
    0
 40
0
  0
LTYPE
  5
32
330
5
100
AcDbSymbolTableRecord
100
AcDbLinetypeTableRecord
  2
DOT
 70
    0
  3
Dot . . . . . . . . . . . . . . . . . . . . . .
 72
   65
 73
    2
 40
6.35
 49
0
 74
    0
 49
-6.35
 74
    0
  0
LTYPE
  5
33
330
5
100
AcDbSymbolTableRecord
100
AcDbLinetypeTableRecord
  2
DOTTINY
 70
    0
  3
Dot (.15x) .....................................
 72
   65
 73
    2
 40
0.9525
 49
0
 74
    0
 49
-0.9525
 74
    0
  0
LTYPE
  5
34
330
5
100
AcDbSymbolTableRecord
100
AcDbLinetypeTableRecord
  2
DOT2
 70
    0
  3
Dot (.5x) .....................................
 72
   65
 73
    2
 40
3.175
 49
0
 74
    0
 49
-3.175
 74
    0
  0
LTYPE
  5
35
330
5
100
AcDbSymbolTableRecord
100
AcDbLinetypeTableRecord
  2
DOTX2
 70
    0
  3
Dot (2x) .  .  .  .  .  .  .  .  .  .  .  .  .
 72
   65
 73
    2
 40
12.7
 49
0
 74
    0
 49
-12.7
 74
    0
  0
LTYPE
  5
36
330
5
100
AcDbSymbolTableRecord
100
AcDbLinetypeTableRecord
  2
DASHED
 70
    0
  3
Dashed _ _ _ _ _ _ _ _ _ _ _ _ _ _ _ _ _
 72
   65
 73
    2
 40
19.05
 49
12.7
 74
    0
 49
-6.35
 74
    0
  0
LTYPE
  5
37
330
5
100
AcDbSymbolTableRecord
100
AcDbLinetypeTableRecord
  2
DASHEDTINY
 70
    0
  3
Dashed (.15x) _ _ _ _ _ _ _ _ _ _ _ _ _ _ _ _ _
 72
   65
 73
    2
 40
2.8575
 49
1.905
 74
    0
 49
-0.9525
 74
    0
  0
LTYPE
  5
38
330
5
100
AcDbSymbolTableRecord
100
AcDbLinetypeTableRecord
  2
DASHED2
 70
    0
  3
Dashed (.5x) _ _ _ _ _ _ _ _ _ _ _ _ _ _ _ _ _
 72
   65
 73
    2
 40
9.524999999999999
 49
6.35
 74
    0
 49
-3.175
 74
    0
  0
LTYPE
  5
39
330
5
100
AcDbSymbolTableRecord
100
AcDbLinetypeTableRecord
  2
DASHEDX2
 70
    0
  3
Dashed (2x) ____  ____  ____  ____  ____  ___
 72
   65
 73
    2
 40
38.09999999999999
 49
25.4
 74
    0
 49
-12.7
 74
    0
  0
LTYPE
  5
3A
330
5
100
AcDbSymbolTableRecord
100
AcDbLinetypeTableRecord
  2
DASHDOT
 70
    0
  3
Dash dot __ . __ . __ . __ . __ . __ . __ . __
 72
   65
 73
    4
 40
25.4
 49
12.7
 74
    0
 49
-6.35
 74
    0
 49
0
 74
    0
 49
-6.35
 74
    0
  0
LTYPE
  5
3B
330
5
100
AcDbSymbolTableRecord
100
AcDbLinetypeTableRecord
  2
DASHDOTTINY
 70
    0
  3
Dash dot (.15x) _._._._._._._._._._._._._._._.
 72
   65
 73
    4
 40
3.81
 49
1.905
 74
    0
 49
-0.9525
 74
    0
 49
0
 74
    0
 49
-0.9525
 74
    0
  0
LTYPE
  5
3C
330
5
100
AcDbSymbolTableRecord
100
AcDbLinetypeTableRecord
  2
DASHDOT2
 70
    0
  3
Dash dot (.5x) _._._._._._._._._._._._._._._.
 72
   65
 73
    4
 40
12.7
 49
6.35
 74
    0
 49
-3.175
 74
    0
 49
0
 74
    0
 49
-3.175
 74
    0
  0
LTYPE
  5
3D
330
5
100
AcDbSymbolTableRecord
100
AcDbLinetypeTableRecord
  2
DASHDOTX2
 70
    0
  3
Dash dot (2x) ____  .  ____  .  ____  .  ___
 72
   65
 73
    4
 40
50.8
 49
25.4
 74
    0
 49
-12.7
 74
    0
 49
0
 74
    0
 49
-12.7
 74
    0
  0
LTYPE
  5
3E
330
5
100
AcDbSymbolTableRecord
100
AcDbLinetypeTableRecord
  2
DIVIDE
 70
    0
  3
Divide ____ . . ____ . . ____ . . ____ . . ____
 72
   65
 73
    6
 40
31.75
 49
12.7
 74
    0
 49
-6.35
 74
    0
 49
0
 74
    0
 49
-6.35
 74
    0
 49
0
 74
    0
 49
-6.35
 74
    0
  0
LTYPE
  5
3F
330
5
100
AcDbSymbolTableRecord
100
AcDbLinetypeTableRecord
  2
DIVIDETINY
 70
    0
  3
Divide (.15x) __..__..__..__..__..__..__..__.._
 72
   65
 73
    6
 40
4.7625
 49
1.905
 74
    0
 49
-0.9525
 74
    0
 49
0
 74
    0
 49
-0.9525
 74
    0
 49
0
 74
    0
 49
-0.9525
 74
    0
  0
LTYPE
  5
40
330
5
100
AcDbSymbolTableRecord
100
AcDbLinetypeTableRecord
  2
DIVIDE2
 70
    0
  3
Divide (.5x) __..__..__..__..__..__..__..__.._
 72
   65
 73
    6
 40
15.875
 49
6.35
 74
    0
 49
-3.175
 74
    0
 49
0
 74
    0
 49
-3.175
 74
    0
 49
0
 74
    0
 49
-3.175
 74
    0
  0
LTYPE
  5
41
330
5
100
AcDbSymbolTableRecord
100
AcDbLinetypeTableRecord
  2
DIVIDEX2
 70
    0
  3
Divide (2x) ________  .  .  ________  .  .  _
 72
   65
 73
    6
 40
63.5
 49
25.4
 74
    0
 49
-12.7
 74
    0
 49
0
 74
    0
 49
-12.7
 74
    0
 49
0
 74
    0
 49
-12.7
 74
    0
  0
LTYPE
  5
42
330
5
100
AcDbSymbolTableRecord
100
AcDbLinetypeTableRecord
  2
BORDER
 70
    0
  3
Border __ __ . __ __ . __ __ . __ __ . __ __ .
 72
   65
 73
    6
 40
44.45
 49
12.7
 74
    0
 49
-6.35
 74
    0
 49
12.7
 74
    0
 49
-6.35
 74
    0
 49
0
 74
    0
 49
-6.35
 74
    0
  0
LTYPE
  5
43
330
5
100
AcDbSymbolTableRecord
100
AcDbLinetypeTableRecord
  2
BORDERTINY
 70
    0
  3
Border (.15x) __.__.__.__.__.__.__.__.__.__.__.
 72
   65
 73
    6
 40
6.6675
 49
1.905
 74
    0
 49
-0.9525
 74
    0
 49
1.905
 74
    0
 49
-0.9525
 74
    0
 49
0
 74
    0
 49
-0.9525
 74
    0
  0
LTYPE
  5
44
330
5
100
AcDbSymbolTableRecord
100
AcDbLinetypeTableRecord
  2
BORDER2
 70
    0
  3
Border (.5x) __.__.__.__.__.__.__.__.__.__.__.
 72
   65
 73
    6
 40
22.225
 49
6.35
 74
    0
 49
-3.175
 74
    0
 49
6.35
 74
    0
 49
-3.175
 74
    0
 49
0
 74
    0
 49
-3.175
 74
    0
  0
LTYPE
  5
45
330
5
100
AcDbSymbolTableRecord
100
AcDbLinetypeTableRecord
  2
BORDERX2
 70
    0
  3
Border (2x) ____  ____  .  ____  ____  .  ___
 72
   65
 73
    6
 40
88.89999999999999
 49
25.4
 74
    0
 49
-12.7
 74
    0
 49
25.4
 74
    0
 49
-12.7
 74
    0
 49
0
 74
    0
 49
-12.7
 74
    0
  0
LTYPE
  5
46
330
5
100
AcDbSymbolTableRecord
100
AcDbLinetypeTableRecord
  2
CENTER
 70
    0
  3
Center ____ _ ____ _ ____ _ ____ _ ____ _ ____
 72
   65
 73
    4
 40
50.8
 49
31.75
 74
    0
 49
-6.35
 74
    0
 49
6.35
 74
    0
 49
-6.35
 74
    0
  0
LTYPE
  5
47
330
5
100
AcDbSymbolTableRecord
100
AcDbLinetypeTableRecord
  2
CENTERTINY
 70
    0
  3
Center (.15x) ___ _ ___ _ ___ _ ___ _ ___ _ ___
 72
   65
 73
    4
 40
7.62
 49
4.7625
 74
    0
 49
-0.9525
 74
    0
 49
0.9525
 74
    0
 49
-0.9525
 74
    0
  0
LTYPE
  5
48
330
5
100
AcDbSymbolTableRecord
100
AcDbLinetypeTableRecord
  2
CENTER2
 70
    0
  3
Center (.5x) ___ _ ___ _ ___ _ ___ _ ___ _ ___
 72
   65
 73
    4
 40
28.575
 49
19.05
 74
    0
 49
-3.175
 74
    0
 49
3.175
 74
    0
 49
-3.175
 74
    0
  0
LTYPE
  5
49
330
5
100
AcDbSymbolTableRecord
100
AcDbLinetypeTableRecord
  2
CENTERX2
 70
    0
  3
Center (2x) ________  __  ________  __  _____
 72
   65
 73
    4
 40
101.6
 49
63.5
 74
    0
 49
-12.7
 74
    0
 49
12.7
 74
    0
 49
-12.7
 74
    0
  0
ENDTAB
  0
TABLE
  2
LAYER
  5
2
330
0
100
AcDbSymbolTable
 70
    1
  0
LAYER
  5
10
330
2
100
AcDbSymbolTableRecord
100
AcDbLayerTableRecord
  2
0
 70
    0
 62
    7
  6
CONTINUOUS
370
   -3
390
F
  0
ENDTAB
  0
TABLE
  2
STYLE
  5
3
330
0
100
AcDbSymbolTable
 70
    3
  0
STYLE
  5
4A
330
2
100
AcDbSymbolTableRecord
100
AcDbTextStyleTableRecord
  2
Standard
 70
    0
 40
0
 41
1
 50
0
 71
    0
 42
1
  3
txt
  4

  0
ENDTAB
  0
TABLE
  2
VIEW
  5
6
330
0
100
AcDbSymbolTable
 70
    0
  0
ENDTAB
  0
TABLE
  2
UCS
  5
7
330
0
100
AcDbSymbolTable
 70
    0
  0
ENDTAB
  0
TABLE
  2
APPID
  5
9
330
0
100
AcDbSymbolTable
 70
    1
  0
APPID
  5
12
330
9
100
AcDbSymbolTableRecord
100
AcDbRegAppTableRecord
  2
ACAD
 70
    0
  0
APPID
  5
4B
330
9
100
AcDbSymbolTableRecord
100
AcDbRegAppTableRecord
  2
LibreCad
 70
    0
  0
ENDTAB
  0
TABLE
  2
DIMSTYLE
  5
A
330
0
100
AcDbSymbolTable
 70
    1
100
AcDbDimStyleTable
 71
    1
  0
DIMSTYLE
105
4C
330
A
100
AcDbSymbolTableRecord
100
AcDbDimStyleTableRecord
  2
Standard
 70
    0
 40
1
 41
2.5
 42
0.625
 43
0.38
 44
1.25
 45
0
 46
0
 47
0
 48
0
 49
1
140
2.5
141
0.09
142
2.5
143
25.4
144
1
145
0
146
1
147
0.625
148
0
 71
    0
 72
    0
 73
    0
 74
    1
 75
    0
 76
    0
 77
    0
 78
    1
 79
    0
170
    0
171
    2
172
    0
173
    0
174
    0
175
    0
176
    0
177
    0
178
    0
179
    0
271
    2
272
    4
273
    2
274
    2
275
    0
276
    0
277
    2
278
    0
279
    0
280
    0
281
    0
282
    0
283
    1
284
    0
285
    0
286
    0
288
    0
289
    3
340
standard
341

371
   -2
372
   -2
  0
ENDTAB
  0
TABLE
  2
BLOCK_RECORD
  5
1
330
0
100
AcDbSymbolTable
 70
    2
  0
BLOCK_RECORD
  5
1F
330
1
100
AcDbSymbolTableRecord
100
AcDbBlockTableRecord
  2
*Model_Space
 70
    0
280
    1
281
    0
  0
BLOCK_RECORD
  5
1E
330
1
100
AcDbSymbolTableRecord
100
AcDbBlockTableRecord
  2
*Paper_Space
 70
    0
280
    1
281
    0
  0
ENDTAB
  0
ENDSEC
  0
SECTION
  2
BLOCKS
  0
BLOCK
  5
20
330
1F
100
AcDbEntity
  8
0
100
AcDbBlockBegin
  2
*Model_Space
 70
    0
 10
0
 20
0
 30
0
  3
*Model_Space
  1

  0
ENDBLK
  5
21
330
1F
100
AcDbEntity
  8
0
100
AcDbBlockEnd
  0
BLOCK
  5
1C
330
1B
100
AcDbEntity
  8
0
100
AcDbBlockBegin
  2
*Paper_Space
 70
    0
 10
0
 20
0
 30
0
  3
*Paper_Space
  1

  0
ENDBLK
  5
1D
330
1F
100
AcDbEntity
  8
0
100
AcDbBlockEnd
  0
ENDSEC
  0
SECTION
  2
ENTITIES
  0
LWPOLYLINE
  5
4D
100
AcDbEntity
  8
0
  6
ByLayer
 62
  256
370
   -1
100
AcDbPolyline
 90
    4
 70
    1
 43
0
 10
145.2828535302432
 20
145.6487445008489
 10
145.2828535302432
 20
147.6487445008489
 10
137.7828535302433
 20
147.6487445008489
 10
137.7828535302433
 20
145.6487445008489
  0
LWPOLYLINE
  5
4E
100
AcDbEntity
  8
0
  6
ByLayer
 62
  256
370
   -1
100
AcDbPolyline
 90
    4
 70
    1
 43
0
 10
184.2828535302432
 20
147.6487445008489
 10
184.2828535302432
 20
145.6487445008489
 10
191.7828535302433
 20
145.6487445008489
 10
191.7828535302433
 20
147.6487445008489
  0
LWPOLYLINE
  5
4F
100
AcDbEntity
  8
0
  6
ByLayer
 62
  256
370
   -1
100
AcDbPolyline
 90
   60
 70
    1
 43
0
 10
130.2828535302434
 20
186.6487445008489
 10
137.9971392445291
 20
186.6487445008489
 10
137.9971392445291
 20
189.6487445008489
 10
148.7114249588147
 20
189.6487445008489
 10
148.7114249588147
 20
186.6487445008489
 10
159.4257106731005
 20
186.6487445008489
 10
159.4257106731005
 20
189.6487445008489
 10
170.1399963873862
 20
189.6487445008489
 10
170.1399963873862
 20
186.6487445008489
 10
180.8542821016718
 20
186.6487445008489
 10
180.8542821016718
 20
189.6487445008489
 10
191.5685678159575
 20
189.6487445008489
 10
191.5685678159575
 20
186.6487445008489
 10
199.2828535302432
 20
186.6487445008489
 10
199.2828535302432
 20
167.4265222786266
 10
202.2828535302432
 20
167.4265222786266
 10
202.2828535302432
 20
145.2043000564044
 10
199.2828535302432
 20
145.2043000564044
 10
199.2828535302432
 20
122.9820778341822
 10
202.2828535302432
 20
122.9820778341822
 10
202.2828535302432
 20
100.75985561196
 10
199.2828535302432
 20
100.75985561196
 10
199.2828535302432
 20
78.53763338973783
 10
202.2828535302432
 20
78.53763338973783
 10
202.2828535302432
 20
56.31541116751563
 10
199.2828535302432
 20
56.31541116751563
 10
199.2828535302432
 20
34.09318894529338
 10
202.2828535302432
 20
34.09318894529338
 10
202.2828535302432
 20
11.87096672307118
 10
199.2828535302432
 20
11.87096672307118
 10
199.2828535302432
 20
-7.351255499151023
 10
191.5685678159575
 20
-7.351255499151023
 10
191.5685678159575
 20
-10.35125549915102
 10
180.8542821016718
 20
-10.35125549915102
 10
180.8542821016718
 20
-7.351255499151023
 10
170.1399963873862
 20
-7.351255499151023
 10
170.1399963873862
 20
-10.35125549915102
 10
159.4257106731005
 20
-10.35125549915102
 10
159.4257106731005
 20
-7.351255499151023
 10
148.7114249588147
 20
-7.351255499151023
 10
148.7114249588147
 20
-10.35125549915102
 10
137.9971392445291
 20
-10.35125549915102
 10
137.9971392445291
 20
-7.351255499151023
 10
130.2828535302434
 20
-7.351255499151023
 10
130.2828535302434
 20
11.87096672307118
 10
127.2828535302434
 20
11.87096672307118
 10
127.2828535302434
 20
34.09318894529338
 10
130.2828535302434
 20
34.09318894529346
 10
130.2828535302434
 20
56.31541116751563
 10
127.2828535302434
 20
56.31541116751563
 10
127.2828535302434
 20
78.53763338973783
 10
130.2828535302434
 20
78.53763338973783
 10
130.2828535302434
 20
100.75985561196
 10
127.2828535302434
 20
100.75985561196
 10
127.2828535302434
 20
122.9820778341822
 10
130.2828535302434
 20
122.9820778341822
 10
130.2828535302434
 20
145.2043000564044
 10
127.2828535302434
 20
145.2043000564044
 10
127.2828535302434
 20
167.4265222786266
 10
130.2828535302434
 20
167.4265222786266
  0
CIRCLE
  5
50
100
AcDbEntity
  8
0
  6
ByLayer
 62
  256
370
   -1
100
AcDbCircle
 10
142.2828535302433
 20
106.6487445008489
 40
2.5
  0
LWPOLYLINE
  5
51
100
AcDbEntity
  8
0
  6
ByLayer
 62
  256
370
   -1
100
AcDbPolyline
 90
   10
 70
    1
 43
0
 10
179.7828535302432
 20
119.6487445008489
 10
179.7828535302432
 20
145.6487445008489
 10
149.7828535302432
 20
145.6487445008489
 10
149.7828535302432
 20
119.6487445008489
 10
149.7828521891388
 20
116.6487445008489
 10
159.4257093319958
 20
116.6487445008489
 10
159.4257093319958
 20
119.6487445008489
 10
170.1399950462815
 20
119.6487445008489
 10
170.1399950462815
 20
116.6487445008489
 10
179.7828521891388
 20
116.6487445008489
  0
LWPOLYLINE
  5
52
100
AcDbEntity
  8
0
  6
ByLayer
 62
  256
370
   -1
100
AcDbPolyline
 90
   12
 70
    1
 43
0
 10
262.7787733817877
 20
119.6487445008489
 10
262.7787733817877
 20
145.6487445008489
 10
232.7787733817877
 20
145.6487445008489
 10
232.7787733817877
 20
119.6487445008489
 10
235.2787747228923
 20
119.6487445008489
 10
235.2787747228923
 20
116.6487445008489
 10
243.6121080562256
 20
116.6487445008489
 10
243.6121080562256
 20
119.6487445008489
 10
251.945441389559
 20
119.6487445008489
 10
251.945441389559
 20
116.6487445008489
 10
260.2787747228923
 20
116.6487445008489
 10
260.2787747228923
 20
119.6487445008489
  0
CIRCLE
  5
53
100
AcDbEntity
  8
0
  6
ByLayer
 62
  256
370
   -1
100
AcDbCircle
 10
228.2787751699271
 20
106.6487445008489
 40
2.5
  0
LWPOLYLINE
  5
54
100
AcDbEntity
  8
0
  6
ByLayer
 62
  256
370
   -1
100
AcDbPolyline
 90
   68
 70
    1
 43
0
 10
276.9454418365938
 20
186.6487445008489
 10
285.2787720943275
 20
186.6487445008489
 10
285.2787725515802
 20
167.4265222786266
 10
282.2787725515802
 20
167.4265222786266
 10
282.2787725515802
 20
145.2043000564044
 10
285.2787725515802
 20
145.2043000564044
 10
285.2787735733742
 20
122.9820778341822
 10
282.2787735733742
 20
122.9820778341822
 10
282.2787735733742
 20
100.75985561196
 10
285.2787735733742
 20
100.75985561196
 10
285.278774595168
 20
78.53763338973783
 10
282.278774595168
 20
78.53763338973783
 10
282.278774595168
 20
56.31541116751563
 10
285.278774595168
 20
56.31541116751563
 10
285.278775616962
 20
34.09318894529338
 10
282.278775616962
 20
34.09318894529338
 10
282.278775616962
 20
11.87096672307121
 10
285.278775616962
 20
11.87096672307121
 10
285.2787755633179
 20
-7.351255499151023
 10
276.9454418365938
 20
-7.351255499151023
 10
276.9454418365938
 20
-10.35125549915102
 10
268.6121085032604
 20
-10.35125549915102
 10
268.6121085032604
 20
-7.351255499151023
 10
260.2787751699271
 20
-7.351255499151023
 10
260.2787751699271
 20
-10.35125549915102
 10
251.9454418365938
 20
-10.35125549915102
 10
251.9454418365938
 20
-7.351255499151023
 10
243.6121085032604
 20
-7.351255499151023
 10
243.6121085032604
 20
-10.35125549915102
 10
235.2787751699271
 20
-10.35125549915102
 10
235.2787751699271
 20
-7.351255499151023
 10
226.9454418365938
 20
-7.351255499151023
 10
226.9454418365938
 20
-10.35125549915102
 10
218.6121085032604
 20
-10.35125549915102
 10
218.6121085032604
 20
-7.351255499151023
 10
210.2787747228923
 20
-7.351255499151023
 10
210.2787751699271
 20
11.87096672307118
 10
213.2787751699271
 20
11.87096672307121
 10
213.2787751699271
 20
34.09318894529338
 10
210.2787751699271
 20
34.09318894529338
 10
210.2787751699271
 20
56.31541116751563
 10
213.2787751699271
 20
56.31541116751563
 10
213.2787751699271
 20
78.53763338973783
 10
210.2787751699271
 20
78.53763338973783
 10
210.2787751699271
 20
100.75985561196
 10
213.2787751699271
 20
100.75985561196
 10
213.2787751699271
 20
122.9820778341822
 10
210.2787751699271
 20
122.9820778341822
 10
210.2787751699271
 20
145.2043000564044
 10
213.2787751699271
 20
145.2043000564044
 10
213.2787751699271
 20
167.4265222786266
 10
210.2787751699271
 20
167.4265222786266
 10
210.2787747228923
 20
186.6487445008489
 10
218.6121085032604
 20
186.6487445008489
 10
218.6121085032604
 20
189.6487445008489
 10
226.9454418365938
 20
189.6487445008489
 10
226.9454418365938
 20
186.6487445008489
 10
235.2787751699271
 20
186.6487445008489
 10
235.2787751699271
 20
189.6487445008489
 10
243.6121085032604
 20
189.6487445008489
 10
243.6121085032604
 20
186.6487445008489
 10
251.9454418365938
 20
186.6487445008489
 10
251.9454418365938
 20
189.6487445008489
 10
260.2787751699271
 20
189.6487445008489
 10
260.2787751699271
 20
186.6487445008489
 10
268.6121085032604
 20
186.6487445008489
 10
268.6121085032604
 20
189.6487445008489
 10
276.9454418365938
 20
189.6487445008489
  0
LWPOLYLINE
  5
55
100
AcDbEntity
  8
0
  6
ByLayer
 62
  256
370
   -1
100
AcDbPolyline
 90
    4
 70
    1
 43
0
 10
405.4364163237462
 20
100.5154748667041
 10
405.4364163237462
 20
103.5154748667041
 10
397.103082990413
 20
103.5154748667041
 10
397.103082990413
 20
100.5154748667041
  0
LWPOLYLINE
  5
56
100
AcDbEntity
  8
0
  6
ByLayer
 62
  256
370
   -1
100
AcDbPolyline
 90
    4
 70
    1
 43
0
 10
422.103082990413
 20
100.5154748667041
 10
422.103082990413
 20
103.5154748667041
 10
413.7697496570796
 20
103.5154748667041
 10
413.7697496570796
 20
100.5154748667041
  0
LWPOLYLINE
  5
57
100
AcDbEntity
  8
0
  6
ByLayer
 62
  256
370
   -1
100
AcDbPolyline
 90
    4
 70
    1
 43
0
 10
438.7697496570796
 20
100.5154748667041
 10
438.7697496570796
 20
103.5154748667041
 10
430.4364163237462
 20
103.5154748667041
 10
430.4364163237462
 20
100.5154748667041
  0
LWPOLYLINE
  5
58
100
AcDbEntity
  8
0
  6
ByLayer
 62
  256
370
   -1
100
AcDbPolyline
 90
    4
 70
    1
 43
0
 10
455.4364163237462
 20
100.5154748667041
 10
455.4364163237462
 20
103.5154748667041
 10
447.103082990413
 20
103.5154748667041
 10
447.103082990413
 20
100.5154748667041
  0
LWPOLYLINE
  5
59
100
AcDbEntity
  8
0
  6
ByLayer
 62
  256
370
   -1
100
AcDbPolyline
 90
   16
 70
    1
 43
0
 10
373.7697496570797
 20
181.5154748667042
 42
-0.414213562373095
 10
376.7697496570797
 20
184.5154748667042
 10
382.680760221673
 20
184.5154748667043
 42
0.2294157338705613
 10
469.8587390924863
 20
184.5154748667042
 10
475.7697496570796
 20
184.5154748667042
 42
-0.414213562373095
 10
478.7697496570796
 20
181.5154748667042
 10
478.7697496570796
 20
175.6044643021106
 42
0.2294157338705607
 10
478.7697496570797
 20
88.42648543129775
 10
478.7697496570796
 20
82.51547486670412
 42
-0.414213562373095
 10
475.7697496570796
 20
79.51547486670412
 10
469.8587390924862
 20
79.51547486670428
 42
0.2294157338705613
 10
382.6807602216729
 20
79.51547486670447
 10
376.7697496570797
 20
79.51547486670425
 42
-0.4142135623730893
 10
373.7697496570797
 20
82.51547486670432
 10
373.7697496570798
 20
88.42648543129752
 42
0.2294157338705613
 10
373.7697496570796
 20
175.6044643021108
  0
LWPOLYLINE
  5
5A
100
AcDbEntity
  8
0
  6
ByLayer
 62
  256
370
   -1
100
AcDbPolyline
 90
    4
 70
    1
 43
0
 10
463.7697496570796
 20
158.8011891524185
 10
460.7697496570796
 20
158.8011891524185
 10
460.7697496570796
 20
148.0869034381327
 10
463.7697496570796
 20
148.0869034381327
  0
LWPOLYLINE
  5
5B
100
AcDbEntity
  8
0
  6
ByLayer
 62
  256
370
   -1
100
AcDbPolyline
 90
    4
 70
    1
 43
0
 10
463.7697496570796
 20
137.372617723847
 10
460.7697496570796
 20
137.372617723847
 10
460.7697496570796
 20
126.6583320095613
 10
463.7697496570796
 20
126.6583320095613
  0
LWPOLYLINE
  5
5C
100
AcDbEntity
  8
0
  6
ByLayer
 62
  256
370
   -1
100
AcDbPolyline
 90
    4
 70
    1
 43
0
 10
463.7697496570796
 20
115.9440462952756
 10
460.7697496570796
 20
115.9440462952756
 10
460.7697496570796
 20
105.2297605809899
 10
463.7697496570796
 20
105.2297605809899
  0
LWPOLYLINE
  5
5D
100
AcDbEntity
  8
0
  6
ByLayer
 62
  256
370
   -1
100
AcDbPolyline
 90
    4
 70
    1
 43
0
 10
388.7697496570796
 20
158.8011891524185
 10
388.7697496570796
 20
148.0869034381327
 10
391.7697496570796
 20
148.0869034381327
 10
391.7697496570796
 20
158.8011891524185
  0
LWPOLYLINE
  5
5E
100
AcDbEntity
  8
0
  6
ByLayer
 62
  256
370
   -1
100
AcDbPolyline
 90
    4
 70
    1
 43
0
 10
388.7697496570796
 20
137.372617723847
 10
388.7697496570796
 20
126.6583320095613
 10
391.7697496570796
 20
126.6583320095613
 10
391.7697496570796
 20
137.372617723847
  0
LWPOLYLINE
  5
5F
100
AcDbEntity
  8
0
  6
ByLayer
 62
  256
370
   -1
100
AcDbPolyline
 90
    4
 70
    1
 43
0
 10
388.7697496570796
 20
115.9440462952756
 10
388.7697496570796
 20
105.2297605809899
 10
391.7697496570796
 20
105.2297605809899
 10
391.7697496570796
 20
115.9440462952756
  0
LWPOLYLINE
  5
60
100
AcDbEntity
  8
0
  6
ByLayer
 62
  256
370
   -1
100
AcDbPolyline
 90
    4
 70
    1
 43
0
 10
455.4364163237462
 20
166.5154748667041
 10
455.4364163237462
 20
169.5154748667041
 10
447.103082990413
 20
169.5154748667041
 10
447.103082990413
 20
166.5154748667041
  0
LWPOLYLINE
  5
61
100
AcDbEntity
  8
0
  6
ByLayer
 62
  256
370
   -1
100
AcDbPolyline
 90
    4
 70
    1
 43
0
 10
438.7697496570796
 20
166.5154748667041
 10
438.7697496570796
 20
169.5154748667041
 10
430.4364163237462
 20
169.5154748667041
 10
430.4364163237462
 20
166.5154748667041
  0
LWPOLYLINE
  5
62
100
AcDbEntity
  8
0
  6
ByLayer
 62
  256
370
   -1
100
AcDbPolyline
 90
    4
 70
    1
 43
0
 10
422.103082990413
 20
166.5154748667041
 10
422.103082990413
 20
169.5154748667041
 10
413.7697496570796
 20
169.5154748667041
 10
413.7697496570796
 20
166.5154748667041
  0
LWPOLYLINE
  5
63
100
AcDbEntity
  8
0
  6
ByLayer
 62
  256
370
   -1
100
AcDbPolyline
 90
    4
 70
    1
 43
0
 10
405.4364163237462
 20
166.5154748667041
 10
405.4364163237462
 20
169.5154748667041
 10
397.103082990413
 20
169.5154748667041
 10
397.103082990413
 20
166.5154748667041
  0
LWPOLYLINE
  5
64
100
AcDbEntity
  8
0
  6
ByLayer
 62
  256
370
   -1
100
AcDbPolyline
 90
    4
 70
    1
 43
0
 10
405.4364163237462
 20
94.51547486670412
 10
405.4364163237462
 20
97.51547486670412
 10
397.103082990413
 20
97.51547486670412
 10
397.103082990413
 20
94.51547486670412
  0
LWPOLYLINE
  5
65
100
AcDbEntity
  8
0
  6
ByLayer
 62
  256
370
   -1
100
AcDbPolyline
 90
    4
 70
    1
 43
0
 10
422.103082990413
 20
94.51547486670412
 10
422.103082990413
 20
97.51547486670412
 10
413.7697496570796
 20
97.51547486670412
 10
413.7697496570796
 20
94.51547486670412
  0
LWPOLYLINE
  5
66
100
AcDbEntity
  8
0
  6
ByLayer
 62
  256
370
   -1
100
AcDbPolyline
 90
    4
 70
    1
 43
0
 10
438.7697496570796
 20
94.51547486670412
 10
438.7697496570796
 20
97.51547486670412
 10
430.4364163237462
 20
97.51547486670412
 10
430.4364163237462
 20
94.51547486670412
  0
LWPOLYLINE
  5
67
100
AcDbEntity
  8
0
  6
ByLayer
 62
  256
370
   -1
100
AcDbPolyline
 90
    4
 70
    1
 43
0
 10
455.4364163237462
 20
94.51547486670412
 10
455.4364163237462
 20
97.51547486670412
 10
447.103082990413
 20
97.51547486670412
 10
447.103082990413
 20
94.51547486670412
  0
LWPOLYLINE
  5
68
100
AcDbEntity
  8
0
  6
ByLayer
 62
  256
370
   -1
100
AcDbPolyline
 90
   20
 70
    1
 43
0
 10
444.5701625450356
 20
68.57770471490943
 10
439.2368292117023
 20
68.57770471490943
 10
439.2368292117023
 20
65.57770471490943
 10
430.903495878369
 20
65.57770471490943
 10
430.903495878369
 20
68.57770471490943
 10
422.5701625450356
 20
68.57770471490943
 10
422.5701625450356
 20
65.57770471490943
 10
414.2368292117022
 20
65.57770471490943
 10
414.2368292117022
 20
68.57770471490943
 10
405.903495878369
 20
68.57770471490943
 10
405.903495878369
 20
65.57770471490943
 10
397.5701625450356
 20
65.57770471490943
 10
397.5701625450356
 20
68.57770471490943
 10
389.2368292117022
 20
68.57770471490943
 10
389.2368292117022
 20
65.57770471490943
 10
380.903495878369
 20
65.57770471490943
 10
380.903495878369
 20
68.57770471490943
 10
375.5701625450356
 20
68.57770471490943
 10
375.5701625450356
 20
73.57770471490943
 10
444.5701625450356
 20
73.57770471490943
  0
LWPOLYLINE
  5
69
100
AcDbEntity
  8
0
  6
ByLayer
 62
  256
370
   -1
100
AcDbPolyline
 90
   58
 70
    1
 43
0
 10
362.8081222819766
 20
-6.584104272066753
 10
362.8081222819766
 20
68.41589572793322
 10
359.8081222819766
 20
68.41589572793322
 10
359.8081222819766
 20
-6.584104272066753
 10
355.0938365676909
 20
-6.584104272066753
 10
355.0938365676909
 20
-9.584104272066753
 10
344.3795508534051
 20
-9.584104272066753
 10
344.3795508534051
 20
-6.584104272066753
 10
333.6652651391195
 20
-6.584104272066753
 10
333.6652651391195
 20
-9.584104272066753
 10
322.9509794248338
 20
-9.584104272066753
 10
322.9509794248338
 20
-6.584104272066753
 10
312.236693710548
 20
-6.584104272066753
 10
312.236693710548
 20
-9.584104272066753
 10
301.5224079962623
 20
-9.584104272066753
 10
301.5224079962623
 20
-6.584104272066753
 10
293.8081222819766
 20
-6.584104272066753
 10
293.8081222819766
 20
12.63811795015545
 10
290.8081222819766
 20
12.63811795015548
 10
290.8081222819766
 20
34.86034017237768
 10
293.8081222819766
 20
34.86034017237768
 10
293.8081222819766
 20
57.08256239459993
 10
290.8081222819766
 20
57.08256239459993
 10
290.8081222819766
 20
79.30478461682213
 10
293.8081222819766
 20
79.30478461682213
 10
293.8081222819766
 20
101.5270068390443
 10
290.8081222819766
 20
101.5270068390443
 10
290.8081222819766
 20
123.7492290612665
 10
293.8081222819766
 20
123.7492290612665
 10
293.8081222819766
 20
145.9714512834887
 10
290.8081222819766
 20
145.9714512834887
 10
290.8081222819766
 20
168.193673505711
 10
293.8081222819766
 20
168.193673505711
 10
293.8081222819766
 20
187.4158957279332
 10
301.5224079962623
 20
187.4158957279332
 10
301.5224079962623
 20
190.4158957279332
 10
312.236693710548
 20
190.4158957279332
 10
312.236693710548
 20
187.4158957279332
 10
322.9509794248338
 20
187.4158957279332
 10
322.9509794248338
 20
190.4158957279332
 10
333.6652651391195
 20
190.4158957279332
 10
333.6652651391195
 20
187.4158957279332
 10
344.3795508534051
 20
187.4158957279332
 10
344.3795508534051
 20
190.4158957279332
 10
355.0938365676909
 20
190.4158957279332
 10
355.0938365676909
 20
187.4158957279332
 10
362.8081222819766
 20
187.4158957279332
 10
362.8081222819766
 20
168.1936735057108
 10
365.8081222819766
 20
168.193673505711
 10
365.8081222819766
 20
145.9714512834887
 10
362.8081222819766
 20
145.9714512834887
 10
362.8081222819766
 20
123.7492290612664
 10
365.8081222819766
 20
123.7492290612665
 10
365.8081222819766
 20
101.5270068390443
 10
362.8081222819766
 20
101.5270068390443
 10
362.8081222819766
 20
79.30478461682202
 10
365.8081222819766
 20
79.30478461682213
 10
365.8081222819766
 20
-6.584104272066753
  0
LWPOLYLINE
  5
6A
100
AcDbEntity
  8
0
  6
ByLayer
 62
  256
370
   -1
100
AcDbPolyline
 90
    4
 70
    1
 43
0
 10
355.3081222819766
 20
146.4158957279332
 10
355.3081222819766
 20
148.4158957279332
 10
347.8081222819766
 20
148.4158957279332
 10
347.8081222819766
 20
146.4158957279332
  0
LWPOLYLINE
  5
6B
100
AcDbEntity
  8
0
  6
ByLayer
 62
  256
370
   -1
100
AcDbPolyline
 90
    4
 70
    1
 43
0
 10
301.3081222819766
 20
148.4158957279332
 10
301.3081222819766
 20
146.4158957279332
 10
308.8081222819766
 20
146.4158957279332
 10
308.8081222819766
 20
148.4158957279332
  0
LWPOLYLINE
  5
6C
100
AcDbEntity
  8
0
  6
ByLayer
 62
  256
370
   -1
100
AcDbPolyline
 90
    8
 70
    1
 43
0
 10
343.3081222819767
 20
117.4158957279332
 10
343.3081222819766
 20
146.4158957279332
 10
313.3081222819766
 20
146.4158957279332
 10
313.3081222819767
 20
117.4158957279332
 10
322.9509794248338
 20
117.4158957279332
 10
322.9509794248338
 20
120.4158957279332
 10
333.6652651391195
 20
120.4158957279332
 10
333.6652651391195
 20
117.4158957279332
  0
CIRCLE
  5
6D
100
AcDbEntity
  8
0
  6
ByLayer
 62
  256
370
   -1
100
AcDbCircle
 10
350.8081222819766
 20
107.4158957279332
 40
2.5
  0
LWPOLYLINE
  5
6E
100
AcDbEntity
  8
0
  6
ByLayer
 62
  256
370
   -1
100
AcDbPolyline
 90
    4
 70
    1
 43
0
 10
252.0289836910691
 20
-66.01721318326884
 10
277.0289836910691
 20
-66.01721318326884
 42
0.9999999999999999
 10
277.0289836910691
 20
-51.01721318326886
 10
252.0289836910691
 20
-51.01721318326886
  0
LWPOLYLINE
  5
6F
100
AcDbEntity
  8
0
  6
ByLayer
 62
  256
370
   -1
100
AcDbPolyline
 90
    4
 70
    1
 43
0
 10
223.7789842658282
 20
-21.01721318326884
 10
295.7789836910691
 20
-21.01721318326884
 10
295.7789836910691
 20
-96.01721318326884
 10
223.7789842658282
 20
-96.01721318326884
  0
CIRCLE
  5
70
100
AcDbEntity
  8
0
  6
ByLayer
 62
  256
370
   -1
100
AcDbCircle
 10
91.12921926899479
 20
-85.72427199005887
 40
5
  0
LWPOLYLINE
  5
71
100
AcDbEntity
  8
0
  6
ByLayer
 62
  256
370
   -1
100
AcDbPolyline
 90
    4
 70
    1
 43
0
 10
104.3508982432597
 20
-94.72427091717526
 10
96.01756490992639
 20
-94.72427091717526
 10
96.01756490992639
 20
-97.72427091717526
 10
104.3508982432597
 20
-97.72427091717526
  0
LWPOLYLINE
  5
72
100
AcDbEntity
  8
0
  6
ByLayer
 62
  256
370
   -1
100
AcDbPolyline
 90
    4
 70
    1
 43
0
 10
71.01756490992641
 20
-94.72427091717526
 10
62.68423157659306
 20
-94.72427091717526
 10
62.68423157659306
 20
-97.72427091717526
 10
71.01756490992641
 20
-97.72427091717526
  0
LWPOLYLINE
  5
73
100
AcDbEntity
  8
0
  6
ByLayer
 62
  256
370
   -1
100
AcDbPolyline
 90
    4
 70
    1
 43
0
 10
121.0175649099264
 20
-94.72427091717526
 10
112.6842315765931
 20
-94.72427091717526
 10
112.6842315765931
 20
-97.72427091717526
 10
121.0175649099264
 20
-97.72427091717526
  0
LWPOLYLINE
  5
74
100
AcDbEntity
  8
0
  6
ByLayer
 62
  256
370
   -1
100
AcDbPolyline
 90
    4
 70
    1
 43
0
 10
79.35089824325973
 20
-94.7242709171752
 10
79.35089824325973
 20
-97.7242709171752
 10
87.68423157659308
 20
-97.72427091717526
 10
87.68423157659306
 20
-94.72427091717526
  0
LWPOLYLINE
  5
75
100
AcDbEntity
  8
0
  6
ByLayer
 62
  256
370
   -1
100
AcDbPolyline
 90
    4
 70
    1
 43
0
 10
121.0175649099264
 20
-25.72427091717523
 10
121.0175649099264
 20
-22.72427091717523
 10
112.6842315765931
 20
-22.72427091717523
 10
112.6842315765931
 20
-25.72427091717523
  0
LWPOLYLINE
  5
76
100
AcDbEntity
  8
0
  6
ByLayer
 62
  256
370
   -1
100
AcDbPolyline
 90
    4
 70
    1
 43
0
 10
126.3508982432597
 20
-65.58141377431809
 10
129.3508982432597
 20
-65.58141377431809
 10
129.3508982432598
 20
-54.8671280600324
 10
126.3508982432597
 20
-54.8671280600324
  0
LWPOLYLINE
  5
77
100
AcDbEntity
  8
0
  6
ByLayer
 62
  256
370
   -1
100
AcDbPolyline
 90
    4
 70
    1
 43
0
 10
126.3508982432597
 20
-76.29569948860382
 10
126.3508982432597
 20
-87.00998520288954
 10
129.3508982432598
 20
-87.00998520288954
 10
129.3508982432598
 20
-76.29569948860382
  0
LWPOLYLINE
  5
78
100
AcDbEntity
  8
0
  6
ByLayer
 62
  256
370
   -1
100
AcDbPolyline
 90
    4
 70
    1
 43
0
 10
129.3508982432597
 20
-33.43855663146098
 10
126.3508982432598
 20
-33.43855663146098
 10
126.3508982432598
 20
-44.15284234574668
 10
129.3508982432598
 20
-44.15284234574668
  0
LWPOLYLINE
  5
79
100
AcDbEntity
  8
0
  6
ByLayer
 62
  256
370
   -1
100
AcDbPolyline
 90
    4
 70
    1
 43
0
 10
104.3508982432597
 20
-25.72427091717526
 10
104.3508982432597
 20
-22.72427091717523
 10
96.01756490992641
 20
-22.72427091717523
 10
96.01756490992641
 20
-25.72427091717523
  0
LWPOLYLINE
  5
7A
100
AcDbEntity
  8
0
  6
ByLayer
 62
  256
370
   -1
100
AcDbPolyline
 90
    4
 70
    1
 43
0
 10
79.35089824325973
 20
-25.72427091717526
 10
87.68423157659308
 20
-25.72427091717526
 10
87.68423157659308
 20
-22.72427199005887
 10
79.35089824325973
 20
-22.72427091717526
  0
LWPOLYLINE
  5
7B
100
AcDbEntity
  8
0
  6
ByLayer
 62
  256
370
   -1
100
AcDbPolyline
 90
    4
 70
    1
 43
0
 10
62.68423157659308
 20
-22.72427091717523
 10
62.68423157659308
 20
-25.72427091717523
 10
71.01756490992641
 20
-25.72427091717523
 10
71.01756490992641
 20
-22.72427091717526
  0
LWPOLYLINE
  5
7C
100
AcDbEntity
  8
0
  6
ByLayer
 62
  256
370
   -1
100
AcDbPolyline
 90
    4
 70
    1
 43
0
 10
54.35090137250361
 20
-33.43855663146098
 10
54.3509013725036
 20
-44.15284234574668
 10
57.35090137250359
 20
-44.15284234574668
 10
57.35090137250359
 20
-33.43855663146098
  0
LWPOLYLINE
  5
7D
100
AcDbEntity
  8
0
  6
ByLayer
 62
  256
370
   -1
100
AcDbPolyline
 90
    4
 70
    1
 43
0
 10
57.3509013725036
 20
-65.58141377431809
 10
57.3509013725036
 20
-54.8671280600324
 10
54.35090137250361
 20
-54.8671280600324
 10
54.35090137250361
 20
-65.58141377431809
  0
LWPOLYLINE
  5
7E
100
AcDbEntity
  8
0
  6
ByLayer
 62
  256
370
   -1
100
AcDbPolyline
 90
    4
 70
    1
 43
0
 10
54.35090137250361
 20
-76.29569948860382
 10
54.35090137250361
 20
-87.00998520288954
 10
57.35090137250361
 20
-87.00998520288954
 10
57.35090137250361
 20
-76.29569948860382
  0
LWPOLYLINE
  5
7F
100
AcDbEntity
  8
0
  6
ByLayer
 62
  256
370
   -1
100
AcDbPolyline
 90
    4
 70
    1
 43
0
 10
134.3508982432597
 20
-17.72427091717526
 10
134.3508982432597
 20
-102.7242709171752
 10
49.35090137250361
 20
-102.7242709171752
 10
49.35090137250361
 20
-17.72427091717526
  0
LWPOLYLINE
  5
80
100
AcDbEntity
  8
0
  6
ByLayer
 62
  256
370
   -1
100
AcDbPolyline
 90
    8
 70
    1
 43
0
 10
185.1940226111293
 20
-71.89647194976715
 10
185.1940226111294
 20
-44.14647194976712
 10
173.1940226111294
 20
-44.14647194976712
 10
173.1940226111293
 20
-71.89647194976715
 10
154.1940226111295
 20
-71.89647194976715
 10
154.1940226111295
 20
-81.89647194976715
 10
204.1940226111294
 20
-81.89647194976715
 10
204.1940226111294
 20
-71.89647194976715
  0
LWPOLYLINE
  5
81
100
AcDbEntity
  8
0
  6
ByLayer
 62
  256
370
   -1
100
AcDbPolyline
 90
   28
 70
    1
 43
0
 10
144.6940217332548
 20
-70.52147133285911
 10
141.6940223573673
 20
-70.52147133285922
 10
141.6940227022226
 20
-60.878614190002
 10
144.6940217332548
 20
-60.878614190002
 10
144.6940217332548
 20
-50.16432847571625
 10
141.6940228487464
 20
-50.16432847571625
 10
141.6940234302509
 20
-40.52147133285911
 10
144.6940217332548
 20
-40.52147133285902
 10
144.6940217332548
 20
-21.02147256667521
 10
166.6940224467742
 20
-21.02147256667521
 10
166.6940224467742
 20
-18.02147133285911
 10
175.0273557801075
 20
-18.02147133285911
 10
175.0273557801075
 20
-21.02147256667521
 10
183.3606891134408
 20
-21.02147256667521
 10
183.3606891134408
 20
-18.02147133285908
 10
191.6940224467742
 20
-18.02147133285908
 10
191.6940224467742
 20
-21.02147256667521
 10
213.6940234890039
 20
-21.02147256667521
 10
213.6940234890039
 20
-40.52147256667533
 10
216.6940243243205
 20
-40.52147267396361
 10
216.694023979465
 20
-50.16432981682073
 10
213.6940234890039
 20
-50.16432970953244
 10
213.6940234890039
 20
-60.87861542381819
 10
216.6940235962923
 20
-60.87861553110662
 10
216.6940232514369
 20
-70.52147267396373
 10
213.6940234890039
 20
-70.5214725666753
 10
213.6940234890039
 20
-90.02147009904286
 10
144.6940217332548
 20
-90.02147009904286
  0
CIRCLE
  5
82
100
AcDbEntity
  8
0
  6
ByLayer
 62
  256
370
   -1
100
AcDbCircle
 10
83.22501036678563
 20
106.7623760625919
 40
2.5
  0
LWPOLYLINE
  5
83
100
AcDbEntity
  8
0
  6
ByLayer
 62
  256
370
   -1
100
AcDbPolyline
 90
    4
 70
    1
 43
0
 10
107.7250093083607
 20
-2.237623937408104
 10
107.7250093083607
 20
67.7623760625919
 10
58.72500930836065
 20
67.7623760625919
 10
58.72500930836065
 20
-2.237623937408102
  0
LWPOLYLINE
  5
84
100
AcDbEntity
  8
0
  6
ByLayer
 62
  256
370
   -1
100
AcDbPolyline
 90
   62
 70
    1
 43
0
 10
48.7250088613258
 20
-7.237623937408095
 10
48.72500988311972
 20
78.65126495148077
 10
45.72500988311972
 20
78.65126495148077
 10
45.72501090491365
 20
100.873487173703
 10
48.72501090491365
 20
100.873487173703
 10
48.72501090491365
 20
123.0957093959252
 10
45.72501090491365
 20
123.0957093959252
 10
45.72501192670758
 20
145.3179316181474
 10
48.72501192670758
 20
145.3179316181474
 10
48.72501192670758
 20
167.5401538403696
 10
45.72501192670758
 20
167.5401538403696
 10
45.72501238396036
 20
186.7623760625919
 10
54.05834264169398
 20
186.7623760625919
 10
54.05834264169398
 20
189.7623760625919
 10
62.39167597502733
 20
189.7623760625919
 10
62.39167597502733
 20
186.7623760625919
 10
70.72500930836065
 20
186.7623760625919
 10
70.72500930836065
 20
189.7623760625919
 10
79.058342641694
 20
189.7623760625919
 10
79.058342641694
 20
186.7623760625919
 10
87.39167597502731
 20
186.7623760625919
 10
87.39167597502731
 20
189.7623760625919
 10
95.72500930836065
 20
189.7623760625919
 10
95.72500930836065
 20
186.7623760625919
 10
104.058342641694
 20
186.7623760625919
 10
104.058342641694
 20
189.7623760625919
 10
112.3916759750273
 20
189.7623760625919
 10
112.3916759750273
 20
186.7623760625919
 10
120.7250097553955
 20
186.7623760625919
 10
120.7250093083607
 20
167.5401538403696
 10
117.7250093083607
 20
167.5401538403696
 10
117.7250093083607
 20
145.3179316181474
 10
120.7250093083607
 20
145.3179316181474
 10
120.7250093083607
 20
123.0957093959252
 10
117.7250093083607
 20
123.0957093959252
 10
117.7250093083607
 20
100.873487173703
 10
120.7250093083607
 20
100.873487173703
 10
120.7250093083607
 20
78.65126495148077
 10
117.7250093083607
 20
78.65126495148077
 10
117.7250093083607
 20
56.42904272925855
 10
120.7250093083607
 20
56.42904272925854
 10
120.7250093083607
 20
34.20682050703634
 10
117.7250093083607
 20
34.20682050703634
 10
117.7250093083607
 20
11.98459828481412
 10
120.7250093083607
 20
11.98459828481411
 10
120.7250097553955
 20
-7.237623937408095
 10
112.3916759750273
 20
-7.237623937408102
 10
112.3916759750273
 20
-10.2376239374081
 10
104.058342641694
 20
-10.2376239374081
 10
104.058342641694
 20
-7.237623937408102
 10
95.72500930836065
 20
-7.237623937408102
 10
95.72500930836065
 20
-10.2376239374081
 10
87.39167597502731
 20
-10.2376239374081
 10
87.39167597502731
 20
-7.237623937408102
 10
79.058342641694
 20
-7.237623937408102
 10
79.058342641694
 20
-10.2376239374081
 10
70.72500930836065
 20
-10.2376239374081
 10
70.72500930836065
 20
-7.237623937408102
 10
62.39167597502733
 20
-7.237623937408102
 10
62.39167597502733
 20
-10.2376239374081
 10
54.05834264169398
 20
-10.2376239374081
 10
54.05834264169398
 20
-7.237623937408102
  0
ENDSEC
  0
SECTION
  2
OBJECTS
  0
DICTIONARY
  5
C
330
0
100
AcDbDictionary
281
    1
  3
ACAD_GROUP
350
D
  0
DICTIONARY
  5
D
330
C
100
AcDbDictionary
281
    1
  0
ENDSEC
  0
EOF
