999
dxfrw 0.6.3
  0
SECTION
  2
HEADER
  9
$ACADVER
  1
AC1021
  9
$DWGCODEPAGE
  3
ANSI_1252
  9
$INSBASE
 10
0
 20
0
 30
0
  9
$EXTMIN
 10
0
 20
-108.3616913314417
 30
0
  9
$EXTMAX
 10
543.3721754515227
 20
200
 30
0
  9
$LIMMIN
 10
0
 20
0
  9
$LIMMAX
 10
420
 20
297
  9
$ORTHOMODE
 70
    0
  9
$REGENMODE
 70
    1
  9
$FILLMODE
 70
    1
  9
$QTEXTMODE
 70
    0
  9
$MIRRTEXT
 70
    0
  9
$LTSCALE
 40
1
  9
$ATTMODE
 70
    0
  9
$TEXTSIZE
 40
2.5
  9
$TRACEWID
 40
15.68
  9
$TEXTSTYLE
  7
STANDARD
  9
$CLAYER
  8
0
  9
$CELTYPE
  6
BYLAYER
  9
$CECOLOR
 62
  256
  9
$CELTSCALE
 40
1
  9
$DISPSILH
 70
    0
  9
$DIMSCALE
 40
2.5
  9
$DIMASZ
 40
2.5
  9
$DIMEXO
 40
0.625
  9
$DIMDLI
 40
3.75
  9
$DIMRND
 40
0
  9
$DIMDLE
 40
0
  9
$DIMEXE
 40
1.25
  9
$DIMTP
 40
0
  9
$DIMTM
 40
0
  9
$DIMTXT
 40
2.5
  9
$DIMCEN
 40
2.5
  9
$DIMTSZ
 40
0
  9
$DIMTOL
 70
    0
  9
$DIMLIM
 70
    0
  9
$DIMTIH
 70
    0
  9
$DIMTOH
 70
    0
  9
$DIMSE1
 70
    0
  9
$DIMSE2
 70
    0
  9
$DIMTAD
 70
    1
  9
$DIMZIN
 70
    8
  9
$DIMBLK
  1

  9
$DIMASO
 70
    1
  9
$DIMSHO
 70
    1
  9
$DIMPOST
  1

  9
$DIMAPOST
  1

  9
$DIMALT
 70
    0
  9
$DIMALTD
 70
    3
  9
$DIMALTF
 40
0.03937
  9
$DIMLFAC
 40
1
  9
$DIMTOFL
 70
    1
  9
$DIMTVP
 40
0
  9
$DIMTIX
 70
    0
  9
$DIMSOXD
 70
    0
  9
$DIMSAH
 70
    0
  9
$DIMBLK1
  1

  9
$DIMBLK2
  1

  9
$DIMSTYLE
  2
Standard
  9
$DIMCLRD
 70
    0
  9
$DIMCLRE
 70
    0
  9
$DIMCLRT
 70
    0
  9
$DIMTFAC
 40
1
  9
$DIMGAP
 40
0.625
  9
$DIMJUST
 70
    0
  9
$DIMSD1
 70
    0
  9
$DIMSD2
 70
    0
  9
$DIMTOLJ
 70
    0
  9
$DIMTZIN
 70
    8
  9
$DIMALTZ
 70
    0
  9
$DIMALTTZ
 70
    0
  9
$DIMUPT
 70
    0
  9
$DIMDEC
 70
    2
  9
$DIMTDEC
 70
    2
  9
$DIMALTU
 70
    2
  9
$DIMALTTD
 70
    3
  9
$DIMTXSTY
  7
STANDARD
  9
$DIMAUNIT
 70
    0
  9
$DIMADEC
 70
    0
  9
$DIMALTRND
 40
0
  9
$DIMAZIN
 70
    0
  9
$DIMDSEP
 70
   44
  9
$DIMATFIT
 70
    3
  9
$DIMFRAC
 70
    0
  9
$DIMLDRBLK
  1
STANDARD
  9
$DIMLUNIT
 70
    2
  9
$DIMLWD
 70
   -2
  9
$DIMLWE
 70
   -2
  9
$DIMTMOVE
 70
    0
  9
$DIMFXL
 40
1
  9
$DIMFXLON
 70
    0
  9
$DIMJOGANG
 40
0.7854
  9
$DIMTFILL
 70
    0
  9
$DIMTFILLCLR
 70
    0
  9
$DIMARCSYM
 70
    0
  9
$DIMLTYPE
  6

  9
$DIMLTEX1
  6

  9
$DIMLTEX2
  6

  9
$LUNITS
 70
    2
  9
$LUPREC
 70
    4
  9
$SKETCHINC
 40
1
  9
$FILLETRAD
 40
0
  9
$AUNITS
 70
    0
  9
$AUPREC
 70
    2
  9
$MENU
  1
.
  9
$ELEVATION
 40
0
  9
$PELEVATION
 40
0
  9
$THICKNESS
 40
0
  9
$LIMCHECK
 70
    0
  9
$CHAMFERA
 40
0
  9
$CHAMFERB
 40
0
  9
$CHAMFERC
 40
0
  9
$CHAMFERD
 40
0
  9
$SKPOLY
 70
    0
  9
$USRTIMER
 70
    1
  9
$ANGBASE
 50
0
  9
$ANGDIR
 70
    0
  9
$PDMODE
 70
   34
  9
$PDSIZE
 40
0
  9
$PLINEWID
 40
0
  9
$SPLFRAME
 70
    0
  9
$SPLINETYPE
 70
    2
  9
$SPLINESEGS
 70
    8
  9
$HANDSEED
  5
20000
  9
$SURFTAB1
 70
    6
  9
$SURFTAB2
 70
    6
  9
$SURFTYPE
 70
    6
  9
$SURFU
 70
    6
  9
$SURFV
 70
    6
  9
$UCSBASE
  2

  9
$UCSNAME
  2

  9
$UCSORG
 10
0
 20
0
 30
0
  9
$UCSXDIR
 10
1
 20
0
 30
0
  9
$UCSYDIR
 10
0
 20
1
 30
0
  9
$UCSORTHOREF
  2

  9
$UCSORTHOVIEW
 70
    0
  9
$UCSORGTOP
 10
0
 20
0
 30
0
  9
$UCSORGBOTTOM
 10
0
 20
0
 30
0
  9
$UCSORGLEFT
 10
0
 20
0
 30
0
  9
$UCSORGRIGHT
 10
0
 20
0
 30
0
  9
$UCSORGFRONT
 10
0
 20
0
 30
0
  9
$UCSORGBACK
 10
0
 20
0
 30
0
  9
$PUCSBASE
  2

  9
$PUCSNAME
  2

  9
$PUCSORG
 10
0
 20
0
 30
0
  9
$PUCSXDIR
 10
1
 20
0
 30
0
  9
$PUCSYDIR
 10
0
 20
1
 30
0
  9
$PUCSORTHOREF
  2

  9
$PUCSORTHOVIEW
 70
    0
  9
$PUCSORGTOP
 10
0
 20
0
 30
0
  9
$PUCSORGBOTTOM
 10
0
 20
0
 30
0
  9
$PUCSORGLEFT
 10
0
 20
0
 30
0
  9
$PUCSORGRIGHT
 10
0
 20
0
 30
0
  9
$PUCSORGFRONT
 10
0
 20
0
 30
0
  9
$PUCSORGBACK
 10
0
 20
0
 30
0
  9
$USERI1
 70
    0
  9
$USERI2
 70
    0
  9
$USERI3
 70
    0
  9
$USERI4
 70
    0
  9
$USERI5
 70
    0
  9
$USERR1
 40
0
  9
$USERR2
 40
0
  9
$USERR3
 40
0
  9
$USERR4
 40
0
  9
$USERR5
 40
0
  9
$WORLDVIEW
 70
    1
  9
$SHADEDGE
 70
    3
  9
$SHADEDIF
 70
   70
  9
$TILEMODE
 70
    1
  9
$MAXACTVP
 70
   64
  9
$PINSBASE
 10
0
 20
0
 30
0
  9
$PLIMCHECK
 70
    0
  9
$PEXTMIN
 10
0
 20
0
 30
0
  9
$PEXTMAX
 10
0
 20
0
 30
0
  9
$SNAPSTYLE
 70
    0
  9
$PLIMMIN
 10
0
 20
0
  9
$PLIMMAX
 10
210
 20
297
  9
$UNITMODE
 70
    0
  9
$VISRETAIN
 70
    1
  9
$PLINEGEN
 70
    0
  9
$PSLTSCALE
 70
    1
  9
$TREEDEPTH
 70
 3020
  9
$CMLSTYLE
  2
Standard
  9
$CMLJUST
 70
    0
  9
$CMLSCALE
 40
20
  9
$PROXYGRAPHICS
 70
    1
  9
$MEASUREMENT
 70
    1
  9
$CELWEIGHT
370
   -1
  9
$ENDCAPS
280
    0
  9
$JOINSTYLE
280
    0
  9
$LWDISPLAY
290
    0
  9
$INSUNITS
 70
    4
  9
$HYPERLINKBASE
  1

  9
$STYLESHEET
  1

  9
$XEDIT
290
    1
  9
$CEPSNTYPE
380
    0
  9
$PSTYLEMODE
290
    1
  9
$EXTNAMES
290
    1
  9
$PSVPSCALE
 40
1
  9
$OLESTARTUP
290
    0
  9
$SORTENTS
280
  127
  9
$INDEXCTL
280
    0
  9
$HIDETEXT
280
    1
  9
$XCLIPFRAME
290
    0
  9
$HALOGAP
280
    0
  9
$OBSCOLOR
 70
  257
  9
$OBSLTYPE
280
    0
  9
$INTERSECTIONDISPLAY
280
    0
  9
$INTERSECTIONCOLOR
 70
  257
  9
$DIMASSOC
280
    1
  9
$PROJECTNAME
  1

  9
$CAMERADISPLAY
290
    0
  9
$LENSLENGTH
 40
50
  9
$CAMERAHEIGHT
 40
0
  9
$STEPSPERSEC
 40
2
  9
$STEPSIZE
 40
50
  9
$3DDWFPREC
 40
2
  9
$PSOLWIDTH
 40
5
  9
$PSOLHEIGHT
 40
80
  9
$LOFTANG1
 40
1.570796326794897
  9
$LOFTANG2
 40
1.570796326794897
  9
$LOFTMAG1
 40
0
  9
$LOFTMAG2
 40
0
  9
$LOFTPARAM
 70
    7
  9
$LOFTNORMALS
280
    1
  9
$LATITUDE
 40
1
  9
$LONGITUDE
 40
1
  9
$NORTHDIRECTION
 40
0
  9
$TIMEZONE
 70
-8000
  9
$LIGHTGLYPHDISPLAY
280
    1
  9
$TILEMODELIGHTSYNCH
280
    1
  9
$SOLIDHIST
280
    1
  9
$SHOWHIST
280
    1
  9
$DWFFRAME
280
    2
  9
$DGNFRAME
280
    0
  9
$REALWORLDSCALE
290
    1
  9
$INTERFERECOLOR
 62
    1
  9
$CSHADOW
280
    0
  9
$SHADOWPLANELOCATION
 40
0
  0
ENDSEC
  0
SECTION
  2
CLASSES
  0
ENDSEC
  0
SECTION
  2
TABLES
  0
TABLE
  2
VPORT
  5
8
330
0
100
AcDbSymbolTable
 70
    1
  0
VPORT
  5
31
330
2
100
AcDbSymbolTableRecord
100
AcDbViewportTableRecord
  2
*ACTIVE
 70
    0
 10
0
 20
0
 11
1
 21
1
 12
372.1534236834497
 22
143.946135575674
 13
0
 23
0
 14
10
 24
10
 15
10
 25
10
 16
0
 26
0
 36
1
 17
0
 27
0
 37
0
 40
430.4880677441356
 41
1.963613550815558
 42
50
 43
0
 44
0
 50
0
 51
0
 71
    0
 72
  100
 73
    1
 74
    3
 75
    0
 76
    1
 77
    0
 78
    0
281
    0
 65
    1
110
0
120
0
130
0
111
1
121
0
131
0
112
0
122
1
132
0
 79
    0
146
0
348
10020
 60
    7
 61
    5
292
1
282
    1
141
0
142
0
 63
  250
421
3358443
  0
ENDTAB
  0
TABLE
  2
LTYPE
  5
5
330
0
100
AcDbSymbolTable
 70
    4
  0
LTYPE
  5
14
330
5
100
AcDbSymbolTableRecord
100
AcDbLinetypeTableRecord
  2
ByBlock
 70
    0
  3

 72
   65
 73
    0
 40
0
  0
LTYPE
  5
15
330
5
100
AcDbSymbolTableRecord
100
AcDbLinetypeTableRecord
  2
ByLayer
 70
    0
  3

 72
   65
 73
    0
 40
0
  0
LTYPE
  5
16
330
5
100
AcDbSymbolTableRecord
100
AcDbLinetypeTableRecord
  2
Continuous
 70
    0
  3
Solid line
 72
   65
 73
    0
 40
0
  0
LTYPE
  5
32
330
5
100
AcDbSymbolTableRecord
100
AcDbLinetypeTableRecord
  2
DOT
 70
    0
  3
Dot . . . . . . . . . . . . . . . . . . . . . .
 72
   65
 73
    2
 40
6.35
 49
0
 74
    0
 49
-6.35
 74
    0
  0
LTYPE
  5
33
330
5
100
AcDbSymbolTableRecord
100
AcDbLinetypeTableRecord
  2
DOTTINY
 70
    0
  3
Dot (.15x) .....................................
 72
   65
 73
    2
 40
0.9525
 49
0
 74
    0
 49
-0.9525
 74
    0
  0
LTYPE
  5
34
330
5
100
AcDbSymbolTableRecord
100
AcDbLinetypeTableRecord
  2
DOT2
 70
    0
  3
Dot (.5x) .....................................
 72
   65
 73
    2
 40
3.175
 49
0
 74
    0
 49
-3.175
 74
    0
  0
LTYPE
  5
35
330
5
100
AcDbSymbolTableRecord
100
AcDbLinetypeTableRecord
  2
DOTX2
 70
    0
  3
Dot (2x) .  .  .  .  .  .  .  .  .  .  .  .  .
 72
   65
 73
    2
 40
12.7
 49
0
 74
    0
 49
-12.7
 74
    0
  0
LTYPE
  5
36
330
5
100
AcDbSymbolTableRecord
100
AcDbLinetypeTableRecord
  2
DASHED
 70
    0
  3
Dashed _ _ _ _ _ _ _ _ _ _ _ _ _ _ _ _ _
 72
   65
 73
    2
 40
19.05
 49
12.7
 74
    0
 49
-6.35
 74
    0
  0
LTYPE
  5
37
330
5
100
AcDbSymbolTableRecord
100
AcDbLinetypeTableRecord
  2
DASHEDTINY
 70
    0
  3
Dashed (.15x) _ _ _ _ _ _ _ _ _ _ _ _ _ _ _ _ _
 72
   65
 73
    2
 40
2.8575
 49
1.905
 74
    0
 49
-0.9525
 74
    0
  0
LTYPE
  5
38
330
5
100
AcDbSymbolTableRecord
100
AcDbLinetypeTableRecord
  2
DASHED2
 70
    0
  3
Dashed (.5x) _ _ _ _ _ _ _ _ _ _ _ _ _ _ _ _ _
 72
   65
 73
    2
 40
9.524999999999999
 49
6.35
 74
    0
 49
-3.175
 74
    0
  0
LTYPE
  5
39
330
5
100
AcDbSymbolTableRecord
100
AcDbLinetypeTableRecord
  2
DASHEDX2
 70
    0
  3
Dashed (2x) ____  ____  ____  ____  ____  ___
 72
   65
 73
    2
 40
38.09999999999999
 49
25.4
 74
    0
 49
-12.7
 74
    0
  0
LTYPE
  5
3A
330
5
100
AcDbSymbolTableRecord
100
AcDbLinetypeTableRecord
  2
DASHDOT
 70
    0
  3
Dash dot __ . __ . __ . __ . __ . __ . __ . __
 72
   65
 73
    4
 40
25.4
 49
12.7
 74
    0
 49
-6.35
 74
    0
 49
0
 74
    0
 49
-6.35
 74
    0
  0
LTYPE
  5
3B
330
5
100
AcDbSymbolTableRecord
100
AcDbLinetypeTableRecord
  2
DASHDOTTINY
 70
    0
  3
Dash dot (.15x) _._._._._._._._._._._._._._._.
 72
   65
 73
    4
 40
3.81
 49
1.905
 74
    0
 49
-0.9525
 74
    0
 49
0
 74
    0
 49
-0.9525
 74
    0
  0
LTYPE
  5
3C
330
5
100
AcDbSymbolTableRecord
100
AcDbLinetypeTableRecord
  2
DASHDOT2
 70
    0
  3
Dash dot (.5x) _._._._._._._._._._._._._._._.
 72
   65
 73
    4
 40
12.7
 49
6.35
 74
    0
 49
-3.175
 74
    0
 49
0
 74
    0
 49
-3.175
 74
    0
  0
LTYPE
  5
3D
330
5
100
AcDbSymbolTableRecord
100
AcDbLinetypeTableRecord
  2
DASHDOTX2
 70
    0
  3
Dash dot (2x) ____  .  ____  .  ____  .  ___
 72
   65
 73
    4
 40
50.8
 49
25.4
 74
    0
 49
-12.7
 74
    0
 49
0
 74
    0
 49
-12.7
 74
    0
  0
LTYPE
  5
3E
330
5
100
AcDbSymbolTableRecord
100
AcDbLinetypeTableRecord
  2
DIVIDE
 70
    0
  3
Divide ____ . . ____ . . ____ . . ____ . . ____
 72
   65
 73
    6
 40
31.75
 49
12.7
 74
    0
 49
-6.35
 74
    0
 49
0
 74
    0
 49
-6.35
 74
    0
 49
0
 74
    0
 49
-6.35
 74
    0
  0
LTYPE
  5
3F
330
5
100
AcDbSymbolTableRecord
100
AcDbLinetypeTableRecord
  2
DIVIDETINY
 70
    0
  3
Divide (.15x) __..__..__..__..__..__..__..__.._
 72
   65
 73
    6
 40
4.7625
 49
1.905
 74
    0
 49
-0.9525
 74
    0
 49
0
 74
    0
 49
-0.9525
 74
    0
 49
0
 74
    0
 49
-0.9525
 74
    0
  0
LTYPE
  5
40
330
5
100
AcDbSymbolTableRecord
100
AcDbLinetypeTableRecord
  2
DIVIDE2
 70
    0
  3
Divide (.5x) __..__..__..__..__..__..__..__.._
 72
   65
 73
    6
 40
15.875
 49
6.35
 74
    0
 49
-3.175
 74
    0
 49
0
 74
    0
 49
-3.175
 74
    0
 49
0
 74
    0
 49
-3.175
 74
    0
  0
LTYPE
  5
41
330
5
100
AcDbSymbolTableRecord
100
AcDbLinetypeTableRecord
  2
DIVIDEX2
 70
    0
  3
Divide (2x) ________  .  .  ________  .  .  _
 72
   65
 73
    6
 40
63.5
 49
25.4
 74
    0
 49
-12.7
 74
    0
 49
0
 74
    0
 49
-12.7
 74
    0
 49
0
 74
    0
 49
-12.7
 74
    0
  0
LTYPE
  5
42
330
5
100
AcDbSymbolTableRecord
100
AcDbLinetypeTableRecord
  2
BORDER
 70
    0
  3
Border __ __ . __ __ . __ __ . __ __ . __ __ .
 72
   65
 73
    6
 40
44.45
 49
12.7
 74
    0
 49
-6.35
 74
    0
 49
12.7
 74
    0
 49
-6.35
 74
    0
 49
0
 74
    0
 49
-6.35
 74
    0
  0
LTYPE
  5
43
330
5
100
AcDbSymbolTableRecord
100
AcDbLinetypeTableRecord
  2
BORDERTINY
 70
    0
  3
Border (.15x) __.__.__.__.__.__.__.__.__.__.__.
 72
   65
 73
    6
 40
6.6675
 49
1.905
 74
    0
 49
-0.9525
 74
    0
 49
1.905
 74
    0
 49
-0.9525
 74
    0
 49
0
 74
    0
 49
-0.9525
 74
    0
  0
LTYPE
  5
44
330
5
100
AcDbSymbolTableRecord
100
AcDbLinetypeTableRecord
  2
BORDER2
 70
    0
  3
Border (.5x) __.__.__.__.__.__.__.__.__.__.__.
 72
   65
 73
    6
 40
22.225
 49
6.35
 74
    0
 49
-3.175
 74
    0
 49
6.35
 74
    0
 49
-3.175
 74
    0
 49
0
 74
    0
 49
-3.175
 74
    0
  0
LTYPE
  5
45
330
5
100
AcDbSymbolTableRecord
100
AcDbLinetypeTableRecord
  2
BORDERX2
 70
    0
  3
Border (2x) ____  ____  .  ____  ____  .  ___
 72
   65
 73
    6
 40
88.89999999999999
 49
25.4
 74
    0
 49
-12.7
 74
    0
 49
25.4
 74
    0
 49
-12.7
 74
    0
 49
0
 74
    0
 49
-12.7
 74
    0
  0
LTYPE
  5
46
330
5
100
AcDbSymbolTableRecord
100
AcDbLinetypeTableRecord
  2
CENTER
 70
    0
  3
Center ____ _ ____ _ ____ _ ____ _ ____ _ ____
 72
   65
 73
    4
 40
50.8
 49
31.75
 74
    0
 49
-6.35
 74
    0
 49
6.35
 74
    0
 49
-6.35
 74
    0
  0
LTYPE
  5
47
330
5
100
AcDbSymbolTableRecord
100
AcDbLinetypeTableRecord
  2
CENTERTINY
 70
    0
  3
Center (.15x) ___ _ ___ _ ___ _ ___ _ ___ _ ___
 72
   65
 73
    4
 40
7.62
 49
4.7625
 74
    0
 49
-0.9525
 74
    0
 49
0.9525
 74
    0
 49
-0.9525
 74
    0
  0
LTYPE
  5
48
330
5
100
AcDbSymbolTableRecord
100
AcDbLinetypeTableRecord
  2
CENTER2
 70
    0
  3
Center (.5x) ___ _ ___ _ ___ _ ___ _ ___ _ ___
 72
   65
 73
    4
 40
28.575
 49
19.05
 74
    0
 49
-3.175
 74
    0
 49
3.175
 74
    0
 49
-3.175
 74
    0
  0
LTYPE
  5
49
330
5
100
AcDbSymbolTableRecord
100
AcDbLinetypeTableRecord
  2
CENTERX2
 70
    0
  3
Center (2x) ________  __  ________  __  _____
 72
   65
 73
    4
 40
101.6
 49
63.5
 74
    0
 49
-12.7
 74
    0
 49
12.7
 74
    0
 49
-12.7
 74
    0
  0
ENDTAB
  0
TABLE
  2
LAYER
  5
2
330
0
100
AcDbSymbolTable
 70
    1
  0
LAYER
  5
10
330
2
100
AcDbSymbolTableRecord
100
AcDbLayerTableRecord
  2
0
 70
    0
 62
    7
  6
CONTINUOUS
370
   -3
390
F
  0
ENDTAB
  0
TABLE
  2
STYLE
  5
3
330
0
100
AcDbSymbolTable
 70
    3
  0
STYLE
  5
4A
330
2
100
AcDbSymbolTableRecord
100
AcDbTextStyleTableRecord
  2
Standard
 70
    0
 40
0
 41
1
 50
0
 71
    0
 42
1
  3
txt
  4

  0
ENDTAB
  0
TABLE
  2
VIEW
  5
6
330
0
100
AcDbSymbolTable
 70
    0
  0
ENDTAB
  0
TABLE
  2
UCS
  5
7
330
0
100
AcDbSymbolTable
 70
    0
  0
ENDTAB
  0
TABLE
  2
APPID
  5
9
330
0
100
AcDbSymbolTable
 70
    1
  0
APPID
  5
12
330
9
100
AcDbSymbolTableRecord
100
AcDbRegAppTableRecord
  2
ACAD
 70
    0
  0
APPID
  5
4B
330
9
100
AcDbSymbolTableRecord
100
AcDbRegAppTableRecord
  2
LibreCad
 70
    0
  0
ENDTAB
  0
TABLE
  2
DIMSTYLE
  5
A
330
0
100
AcDbSymbolTable
 70
    1
100
AcDbDimStyleTable
 71
    1
  0
DIMSTYLE
105
4C
330
A
100
AcDbSymbolTableRecord
100
AcDbDimStyleTableRecord
  2
Standard
 70
    0
 40
1
 41
2.5
 42
0.625
 43
0.38
 44
1.25
 45
0
 46
0
 47
0
 48
0
 49
1
140
2.5
141
0.09
142
2.5
143
25.4
144
1
145
0
146
1
147
0.625
148
0
 71
    0
 72
    0
 73
    0
 74
    1
 75
    0
 76
    0
 77
    0
 78
    1
 79
    0
170
    0
171
    2
172
    0
173
    0
174
    0
175
    0
176
    0
177
    0
178
    0
179
    0
271
    2
272
    4
273
    2
274
    2
275
    0
276
    0
277
    2
278
    0
279
    0
280
    0
281
    0
282
    0
283
    1
284
    0
285
    0
286
    0
288
    0
289
    3
340
standard
341

371
   -2
372
   -2
  0
ENDTAB
  0
TABLE
  2
BLOCK_RECORD
  5
1
330
0
100
AcDbSymbolTable
 70
    2
  0
BLOCK_RECORD
  5
1F
330
1
100
AcDbSymbolTableRecord
100
AcDbBlockTableRecord
  2
*Model_Space
 70
    0
280
    1
281
    0
  0
BLOCK_RECORD
  5
1E
330
1
100
AcDbSymbolTableRecord
100
AcDbBlockTableRecord
  2
*Paper_Space
 70
    0
280
    1
281
    0
  0
ENDTAB
  0
ENDSEC
  0
SECTION
  2
BLOCKS
  0
BLOCK
  5
20
330
1F
100
AcDbEntity
  8
0
100
AcDbBlockBegin
  2
*Model_Space
 70
    0
 10
0
 20
0
 30
0
  3
*Model_Space
  1

  0
ENDBLK
  5
21
330
1F
100
AcDbEntity
  8
0
100
AcDbBlockEnd
  0
BLOCK
  5
1C
330
1B
100
AcDbEntity
  8
0
100
AcDbBlockBegin
  2
*Paper_Space
 70
    0
 10
0
 20
0
 30
0
  3
*Paper_Space
  1

  0
ENDBLK
  5
1D
330
1F
100
AcDbEntity
  8
0
100
AcDbBlockEnd
  0
ENDSEC
  0
SECTION
  2
ENTITIES
  0
LWPOLYLINE
  5
4D
100
AcDbEntity
  8
0
  6
ByLayer
 62
  256
370
   -1
100
AcDbPolyline
 90
    4
 70
    1
 43
0
 10
213.6194852919223
 20
140.0113240865824
 10
213.6194852919223
 20
142.0113240865824
 10
206.1194852919224
 20
142.0113240865824
 10
206.1194852919224
 20
140.0113240865824
  0
LWPOLYLINE
  5
4E
100
AcDbEntity
  8
0
  6
ByLayer
 62
  256
370
   -1
100
AcDbPolyline
 90
    4
 70
    1
 43
0
 10
252.6194852919223
 20
142.0113240865824
 10
252.6194852919223
 20
140.0113240865824
 10
260.1194852919224
 20
140.0113240865824
 10
260.1194852919224
 20
142.0113240865824
  0
LWPOLYLINE
  5
4F
100
AcDbEntity
  8
0
  6
ByLayer
 62
  256
370
   -1
100
AcDbPolyline
 90
   60
 70
    1
 43
0
 10
198.6194852919225
 20
181.0113240865824
 10
206.3337710062082
 20
181.0113240865824
 10
206.3337710062082
 20
184.0113240865824
 10
217.0480567204938
 20
184.0113240865824
 10
217.0480567204938
 20
181.0113240865824
 10
227.7623424347796
 20
181.0113240865824
 10
227.7623424347796
 20
184.0113240865824
 10
238.4766281490653
 20
184.0113240865824
 10
238.4766281490653
 20
181.0113240865824
 10
249.1909138633509
 20
181.0113240865824
 10
249.1909138633509
 20
184.0113240865824
 10
259.9051995776366
 20
184.0113240865824
 10
259.9051995776366
 20
181.0113240865824
 10
267.6194852919223
 20
181.0113240865824
 10
267.6194852919223
 20
161.7891018643601
 10
270.6194852919223
 20
161.7891018643601
 10
270.6194852919223
 20
139.5668796421379
 10
267.6194852919223
 20
139.5668796421379
 10
267.6194852919223
 20
117.3446574199157
 10
270.6194852919223
 20
117.3446574199157
 10
270.6194852919223
 20
95.12243519769351
 10
267.6194852919223
 20
95.12243519769351
 10
267.6194852919223
 20
72.90021297547133
 10
270.6194852919223
 20
72.90021297547133
 10
270.6194852919223
 20
50.67799075324913
 10
267.6194852919223
 20
50.67799075324913
 10
267.6194852919223
 20
28.45576853102688
 10
270.6194852919223
 20
28.45576853102688
 10
270.6194852919223
 20
6.233546308804677
 10
267.6194852919223
 20
6.233546308804677
 10
267.6194852919223
 20
-12.98867591341752
 10
259.9051995776366
 20
-12.98867591341752
 10
259.9051995776366
 20
-15.98867591341752
 10
249.1909138633509
 20
-15.98867591341752
 10
249.1909138633509
 20
-12.98867591341752
 10
238.4766281490653
 20
-12.98867591341752
 10
238.4766281490653
 20
-15.98867591341752
 10
227.7623424347796
 20
-15.98867591341752
 10
227.7623424347796
 20
-12.98867591341752
 10
217.0480567204938
 20
-12.98867591341752
 10
217.0480567204938
 20
-15.98867591341752
 10
206.3337710062082
 20
-15.98867591341752
 10
206.3337710062082
 20
-12.98867591341752
 10
198.6194852919225
 20
-12.98867591341752
 10
198.6194852919225
 20
6.233546308804677
 10
195.6194852919225
 20
6.233546308804677
 10
195.6194852919225
 20
28.45576853102688
 10
198.6194852919225
 20
28.45576853102696
 10
198.6194852919225
 20
50.67799075324913
 10
195.6194852919225
 20
50.67799075324913
 10
195.6194852919225
 20
72.90021297547133
 10
198.6194852919225
 20
72.90021297547133
 10
198.6194852919225
 20
95.12243519769351
 10
195.6194852919225
 20
95.12243519769351
 10
195.6194852919225
 20
117.3446574199157
 10
198.6194852919225
 20
117.3446574199157
 10
198.6194852919225
 20
139.5668796421379
 10
195.6194852919225
 20
139.5668796421379
 10
195.6194852919225
 20
161.7891018643601
 10
198.6194852919225
 20
161.7891018643601
  0
CIRCLE
  5
50
100
AcDbEntity
  8
0
  6
ByLayer
 62
  256
370
   -1
100
AcDbCircle
 10
210.6194852919224
 20
101.0113240865824
 40
2.5
  0
LWPOLYLINE
  5
51
100
AcDbEntity
  8
0
  6
ByLayer
 62
  256
370
   -1
100
AcDbPolyline
 90
   10
 70
    1
 43
0
 10
248.1194852919223
 20
114.0113240865824
 10
248.1194852919223
 20
140.0113240865824
 10
218.1194852919223
 20
140.0113240865824
 10
218.1194852919223
 20
114.0113240865824
 10
218.1194839508179
 20
111.0113240865824
 10
227.7623410936749
 20
111.0113240865824
 10
227.7623410936749
 20
114.0113240865824
 10
238.4766268079607
 20
114.0113240865824
 10
238.4766268079607
 20
111.0113240865824
 10
248.1194839508179
 20
111.0113240865824
  0
LWPOLYLINE
  5
52
100
AcDbEntity
  8
0
  6
ByLayer
 62
  256
370
   -1
100
AcDbPolyline
 90
   12
 70
    1
 43
0
 10
331.1154051434668
 20
114.0113240865824
 10
331.1154051434668
 20
140.0113240865824
 10
301.1154051434668
 20
140.0113240865824
 10
301.1154051434668
 20
114.0113240865824
 10
303.6154064845715
 20
114.0113240865824
 10
303.6154064845715
 20
111.0113240865824
 10
311.9487398179047
 20
111.0113240865824
 10
311.9487398179047
 20
114.0113240865824
 10
320.2820731512381
 20
114.0113240865824
 10
320.2820731512381
 20
111.0113240865824
 10
328.6154064845715
 20
111.0113240865824
 10
328.6154064845715
 20
114.0113240865824
  0
CIRCLE
  5
53
100
AcDbEntity
  8
0
  6
ByLayer
 62
  256
370
   -1
100
AcDbCircle
 10
296.6154069316062
 20
101.0113240865824
 40
2.5
  0
LWPOLYLINE
  5
54
100
AcDbEntity
  8
0
  6
ByLayer
 62
  256
370
   -1
100
AcDbPolyline
 90
   68
 70
    1
 43
0
 10
345.2820735982729
 20
181.0113240865824
 10
353.6154038560067
 20
181.0113240865824
 10
353.6154043132593
 20
161.7891018643601
 10
350.6154043132593
 20
161.7891018643601
 10
350.6154043132593
 20
139.5668796421379
 10
353.6154043132593
 20
139.5668796421379
 10
353.6154053350534
 20
117.3446574199157
 10
350.6154053350534
 20
117.3446574199157
 10
350.6154053350534
 20
95.12243519769351
 10
353.6154053350534
 20
95.12243519769351
 10
353.6154063568471
 20
72.90021297547133
 10
350.6154063568471
 20
72.90021297547133
 10
350.6154063568471
 20
50.67799075324913
 10
353.6154063568471
 20
50.67799075324913
 10
353.6154073786411
 20
28.45576853102688
 10
350.6154073786411
 20
28.45576853102688
 10
350.6154073786411
 20
6.233546308804705
 10
353.6154073786411
 20
6.233546308804705
 10
353.615407324997
 20
-12.98867591341752
 10
345.2820735982729
 20
-12.98867591341752
 10
345.2820735982729
 20
-15.98867591341752
 10
336.9487402649395
 20
-15.98867591341752
 10
336.9487402649395
 20
-12.98867591341752
 10
328.6154069316062
 20
-12.98867591341752
 10
328.6154069316062
 20
-15.98867591341752
 10
320.2820735982729
 20
-15.98867591341752
 10
320.2820735982729
 20
-12.98867591341752
 10
311.9487402649395
 20
-12.98867591341752
 10
311.9487402649395
 20
-15.98867591341752
 10
303.6154069316062
 20
-15.98867591341752
 10
303.6154069316062
 20
-12.98867591341752
 10
295.2820735982729
 20
-12.98867591341752
 10
295.2820735982729
 20
-15.98867591341752
 10
286.9487402649395
 20
-15.98867591341752
 10
286.9487402649395
 20
-12.98867591341752
 10
278.6154064845715
 20
-12.98867591341752
 10
278.6154069316062
 20
6.233546308804677
 10
281.6154069316062
 20
6.233546308804705
 10
281.6154069316062
 20
28.45576853102688
 10
278.6154069316062
 20
28.45576853102688
 10
278.6154069316062
 20
50.67799075324913
 10
281.6154069316062
 20
50.67799075324913
 10
281.6154069316062
 20
72.90021297547133
 10
278.6154069316062
 20
72.90021297547133
 10
278.6154069316062
 20
95.12243519769351
 10
281.6154069316062
 20
95.12243519769351
 10
281.6154069316062
 20
117.3446574199157
 10
278.6154069316062
 20
117.3446574199157
 10
278.6154069316062
 20
139.5668796421379
 10
281.6154069316062
 20
139.5668796421379
 10
281.6154069316062
 20
161.7891018643601
 10
278.6154069316062
 20
161.7891018643601
 10
278.6154064845715
 20
181.0113240865824
 10
286.9487402649395
 20
181.0113240865824
 10
286.9487402649395
 20
184.0113240865824
 10
295.2820735982729
 20
184.0113240865824
 10
295.2820735982729
 20
181.0113240865824
 10
303.6154069316062
 20
181.0113240865824
 10
303.6154069316062
 20
184.0113240865824
 10
311.9487402649395
 20
184.0113240865824
 10
311.9487402649395
 20
181.0113240865824
 10
320.2820735982729
 20
181.0113240865824
 10
320.2820735982729
 20
184.0113240865824
 10
328.6154069316062
 20
184.0113240865824
 10
328.6154069316062
 20
181.0113240865824
 10
336.9487402649395
 20
181.0113240865824
 10
336.9487402649395
 20
184.0113240865824
 10
345.2820735982729
 20
184.0113240865824
  0
LWPOLYLINE
  5
55
100
AcDbEntity
  8
0
  6
ByLayer
 62
  256
370
   -1
100
AcDbPolyline
 90
   20
 70
    1
 43
0
 10
512.9067943067147
 20
62.94028430064293
 10
507.5734609733814
 20
62.94028430064293
 10
507.5734609733814
 20
59.94028430064293
 10
499.2401276400481
 20
59.94028430064293
 10
499.2401276400481
 20
62.94028430064293
 10
490.9067943067147
 20
62.94028430064293
 10
490.9067943067147
 20
59.94028430064293
 10
482.5734609733813
 20
59.94028430064293
 10
482.5734609733813
 20
62.94028430064293
 10
474.2401276400481
 20
62.94028430064293
 10
474.2401276400481
 20
59.94028430064293
 10
465.9067943067147
 20
59.94028430064293
 10
465.9067943067147
 20
62.94028430064293
 10
457.5734609733813
 20
62.94028430064293
 10
457.5734609733813
 20
59.94028430064293
 10
449.2401276400481
 20
59.94028430064293
 10
449.2401276400481
 20
62.94028430064293
 10
443.9067943067147
 20
62.94028430064293
 10
443.9067943067147
 20
67.94028430064293
 10
512.9067943067147
 20
67.94028430064293
  0
LWPOLYLINE
  5
56
100
AcDbEntity
  8
0
  6
ByLayer
 62
  256
370
   -1
100
AcDbPolyline
 90
    4
 70
    1
 43
0
 10
320.3656154527482
 20
-71.65463359753537
 10
345.3656154527482
 20
-71.65463359753535
 42
0.9999999999999999
 10
345.3656154527482
 20
-56.65463359753537
 10
320.3656154527482
 20
-56.65463359753537
  0
LWPOLYLINE
  5
57
100
AcDbEntity
  8
0
  6
ByLayer
 62
  256
370
   -1
100
AcDbPolyline
 90
    4
 70
    1
 43
0
 10
292.1156160275073
 20
-26.65463359753534
 10
364.1156154527482
 20
-26.65463359753534
 10
364.1156154527482
 20
-101.6546335975354
 10
292.1156160275073
 20
-101.6546335975354
  0
CIRCLE
  5
58
100
AcDbEntity
  8
0
  6
ByLayer
 62
  256
370
   -1
100
AcDbCircle
 10
159.4658510306739
 20
-91.36169240432534
 40
5
  0
LWPOLYLINE
  5
59
100
AcDbEntity
  8
0
  6
ByLayer
 62
  256
370
   -1
100
AcDbPolyline
 90
    4
 70
    1
 43
0
 10
172.6875300049388
 20
-100.3616913314417
 10
164.3541966716055
 20
-100.3616913314417
 10
164.3541966716055
 20
-103.3616913314417
 10
172.6875300049388
 20
-103.3616913314417
  0
LWPOLYLINE
  5
5A
100
AcDbEntity
  8
0
  6
ByLayer
 62
  256
370
   -1
100
AcDbPolyline
 90
    4
 70
    1
 43
0
 10
139.3541966716055
 20
-100.3616913314417
 10
131.0208633382722
 20
-100.3616913314417
 10
131.0208633382722
 20
-103.3616913314417
 10
139.3541966716055
 20
-103.3616913314417
  0
LWPOLYLINE
  5
5B
100
AcDbEntity
  8
0
  6
ByLayer
 62
  256
370
   -1
100
AcDbPolyline
 90
    4
 70
    1
 43
0
 10
189.3541966716055
 20
-100.3616913314417
 10
181.0208633382722
 20
-100.3616913314417
 10
181.0208633382722
 20
-103.3616913314417
 10
189.3541966716055
 20
-103.3616913314417
  0
LWPOLYLINE
  5
5C
100
AcDbEntity
  8
0
  6
ByLayer
 62
  256
370
   -1
100
AcDbPolyline
 90
    4
 70
    1
 43
0
 10
147.6875300049389
 20
-100.3616913314417
 10
147.6875300049389
 20
-103.3616913314417
 10
156.0208633382722
 20
-103.3616913314417
 10
156.0208633382722
 20
-100.3616913314417
  0
LWPOLYLINE
  5
5D
100
AcDbEntity
  8
0
  6
ByLayer
 62
  256
370
   -1
100
AcDbPolyline
 90
    4
 70
    1
 43
0
 10
189.3541966716055
 20
-31.36169133144173
 10
189.3541966716055
 20
-28.36169133144173
 10
181.0208633382722
 20
-28.36169133144173
 10
181.0208633382722
 20
-31.36169133144173
  0
LWPOLYLINE
  5
5E
100
AcDbEntity
  8
0
  6
ByLayer
 62
  256
370
   -1
100
AcDbPolyline
 90
    4
 70
    1
 43
0
 10
194.6875300049388
 20
-71.21883418858462
 10
197.6875300049388
 20
-71.21883418858462
 10
197.6875300049389
 20
-60.5045484742989
 10
194.6875300049388
 20
-60.5045484742989
  0
LWPOLYLINE
  5
5F
100
AcDbEntity
  8
0
  6
ByLayer
 62
  256
370
   -1
100
AcDbPolyline
 90
    4
 70
    1
 43
0
 10
194.6875300049388
 20
-81.93311990287029
 10
194.6875300049388
 20
-92.64740561715607
 10
197.6875300049389
 20
-92.64740561715607
 10
197.6875300049389
 20
-81.93311990287029
  0
LWPOLYLINE
  5
60
100
AcDbEntity
  8
0
  6
ByLayer
 62
  256
370
   -1
100
AcDbPolyline
 90
    4
 70
    1
 43
0
 10
197.6875300049388
 20
-39.07597704572748
 10
194.6875300049389
 20
-39.07597704572748
 10
194.6875300049389
 20
-49.79026276001318
 10
197.6875300049389
 20
-49.79026276001318
  0
LWPOLYLINE
  5
61
100
AcDbEntity
  8
0
  6
ByLayer
 62
  256
370
   -1
100
AcDbPolyline
 90
    4
 70
    1
 43
0
 10
172.6875300049388
 20
-31.36169133144176
 10
172.6875300049388
 20
-28.36169133144173
 10
164.3541966716055
 20
-28.36169133144173
 10
164.3541966716055
 20
-31.36169133144173
  0
LWPOLYLINE
  5
62
100
AcDbEntity
  8
0
  6
ByLayer
 62
  256
370
   -1
100
AcDbPolyline
 90
    4
 70
    1
 43
0
 10
147.6875300049389
 20
-31.36169133144176
 10
156.0208633382722
 20
-31.36169133144176
 10
156.0208633382722
 20
-28.36169240432537
 10
147.6875300049389
 20
-28.36169133144176
  0
LWPOLYLINE
  5
63
100
AcDbEntity
  8
0
  6
ByLayer
 62
  256
370
   -1
100
AcDbPolyline
 90
    4
 70
    1
 43
0
 10
131.0208633382722
 20
-28.36169133144173
 10
131.0208633382722
 20
-31.36169133144173
 10
139.3541966716055
 20
-31.36169133144173
 10
139.3541966716055
 20
-28.36169133144176
  0
LWPOLYLINE
  5
64
100
AcDbEntity
  8
0
  6
ByLayer
 62
  256
370
   -1
100
AcDbPolyline
 90
    4
 70
    1
 43
0
 10
122.6875331341827
 20
-39.07597704572748
 10
122.6875331341827
 20
-49.79026276001318
 10
125.6875331341827
 20
-49.79026276001318
 10
125.6875331341827
 20
-39.07597704572748
  0
LWPOLYLINE
  5
65
100
AcDbEntity
  8
0
  6
ByLayer
 62
  256
370
   -1
100
AcDbPolyline
 90
    4
 70
    1
 43
0
 10
125.6875331341827
 20
-71.21883418858462
 10
125.6875331341827
 20
-60.5045484742989
 10
122.6875331341827
 20
-60.5045484742989
 10
122.6875331341827
 20
-71.21883418858462
  0
LWPOLYLINE
  5
66
100
AcDbEntity
  8
0
  6
ByLayer
 62
  256
370
   -1
100
AcDbPolyline
 90
    4
 70
    1
 43
0
 10
122.6875331341827
 20
-81.93311990287029
 10
122.6875331341827
 20
-92.64740561715607
 10
125.6875331341827
 20
-92.64740561715607
 10
125.6875331341827
 20
-81.93311990287029
  0
LWPOLYLINE
  5
67
100
AcDbEntity
  8
0
  6
ByLayer
 62
  256
370
   -1
100
AcDbPolyline
 90
    4
 70
    1
 43
0
 10
202.6875300049388
 20
-23.36169133144176
 10
202.6875300049388
 20
-108.3616913314417
 10
117.6875331341827
 20
-108.3616913314417
 10
117.6875331341827
 20
-23.36169133144176
  0
LWPOLYLINE
  5
68
100
AcDbEntity
  8
0
  6
ByLayer
 62
  256
370
   -1
100
AcDbPolyline
 90
    8
 70
    1
 43
0
 10
253.5306543728084
 20
-77.53389236403368
 10
253.5306543728086
 20
-49.78389236403362
 10
241.5306543728086
 20
-49.78389236403362
 10
241.5306543728084
 20
-77.53389236403368
 10
222.5306543728086
 20
-77.53389236403368
 10
222.5306543728086
 20
-87.53389236403368
 10
272.5306543728086
 20
-87.53389236403368
 10
272.5306543728086
 20
-77.53389236403368
  0
LWPOLYLINE
  5
69
100
AcDbEntity
  8
0
  6
ByLayer
 62
  256
370
   -1
100
AcDbPolyline
 90
   28
 70
    1
 43
0
 10
213.0306534949339
 20
-76.15889174712558
 10
210.0306541190464
 20
-76.15889174712569
 10
210.0306544639017
 20
-66.51603460426853
 10
213.0306534949339
 20
-66.51603460426853
 10
213.0306534949339
 20
-55.80174888998275
 10
210.0306546104255
 20
-55.80174888998275
 10
210.03065519193
 20
-46.15889174712561
 10
213.0306534949339
 20
-46.15889174712552
 10
213.0306534949339
 20
-26.65889298094172
 10
235.0306542084533
 20
-26.65889298094172
 10
235.0306542084533
 20
-23.65889174712561
 10
243.3639875417866
 20
-23.65889174712561
 10
243.3639875417866
 20
-26.65889298094172
 10
251.6973208751199
 20
-26.65889298094172
 10
251.6973208751199
 20
-23.65889174712558
 10
260.0306542084533
 20
-23.65889174712558
 10
260.0306542084533
 20
-26.65889298094172
 10
282.030655250683
 20
-26.65889298094172
 10
282.030655250683
 20
-46.15889298094183
 10
285.0306560859996
 20
-46.15889308823012
 10
285.0306557411441
 20
-55.80175023108723
 10
282.030655250683
 20
-55.80175012379894
 10
282.030655250683
 20
-66.51603583808472
 10
285.0306553579715
 20
-66.51603594537315
 10
285.030655013116
 20
-76.1588930882302
 10
282.030655250683
 20
-76.15889298094177
 10
282.030655250683
 20
-95.65889051330939
 10
213.0306534949339
 20
-95.65889051330939
  0
CIRCLE
  5
6A
100
AcDbEntity
  8
0
  6
ByLayer
 62
  256
370
   -1
100
AcDbCircle
 10
151.5616421284648
 20
101.1249556483254
 40
2.5
  0
LWPOLYLINE
  5
6B
100
AcDbEntity
  8
0
  6
ByLayer
 62
  256
370
   -1
100
AcDbPolyline
 90
    4
 70
    1
 43
0
 10
176.0616410700398
 20
-7.875044351674603
 10
176.0616410700398
 20
62.1249556483254
 10
127.0616410700398
 20
62.1249556483254
 10
127.0616410700398
 20
-7.875044351674603
  0
LWPOLYLINE
  5
6C
100
AcDbEntity
  8
0
  6
ByLayer
 62
  256
370
   -1
100
AcDbPolyline
 90
   62
 70
    1
 43
0
 10
117.0616406230049
 20
-12.8750443516746
 10
117.0616416447988
 20
73.01384453721427
 10
114.0616416447988
 20
73.01384453721427
 10
114.0616426665928
 20
95.23606675943648
 10
117.0616426665928
 20
95.23606675943648
 10
117.0616426665928
 20
117.4582889816587
 10
114.0616426665928
 20
117.4582889816587
 10
114.0616436883867
 20
139.6805112038809
 10
117.0616436883867
 20
139.6805112038809
 10
117.0616436883867
 20
161.9027334261031
 10
114.0616436883867
 20
161.9027334261031
 10
114.0616441456395
 20
181.1249556483254
 10
122.3949744033731
 20
181.1249556483254
 10
122.3949744033731
 20
184.1249556483254
 10
130.7283077367065
 20
184.1249556483254
 10
130.7283077367065
 20
181.1249556483254
 10
139.0616410700398
 20
181.1249556483254
 10
139.0616410700398
 20
184.1249556483254
 10
147.3949744033731
 20
184.1249556483254
 10
147.3949744033731
 20
181.1249556483254
 10
155.7283077367064
 20
181.1249556483254
 10
155.7283077367064
 20
184.1249556483254
 10
164.0616410700398
 20
184.1249556483254
 10
164.0616410700398
 20
181.1249556483254
 10
172.3949744033731
 20
181.1249556483254
 10
172.3949744033731
 20
184.1249556483254
 10
180.7283077367064
 20
184.1249556483254
 10
180.7283077367064
 20
181.1249556483254
 10
189.0616415170746
 20
181.1249556483254
 10
189.0616410700398
 20
161.9027334261031
 10
186.0616410700398
 20
161.9027334261031
 10
186.0616410700398
 20
139.6805112038809
 10
189.0616410700398
 20
139.6805112038809
 10
189.0616410700398
 20
117.4582889816587
 10
186.0616410700398
 20
117.4582889816587
 10
186.0616410700398
 20
95.23606675943648
 10
189.0616410700398
 20
95.23606675943648
 10
189.0616410700398
 20
73.01384453721427
 10
186.0616410700398
 20
73.01384453721427
 10
186.0616410700398
 20
50.79162231499205
 10
189.0616410700398
 20
50.79162231499205
 10
189.0616410700398
 20
28.56940009276983
 10
186.0616410700398
 20
28.56940009276983
 10
186.0616410700398
 20
6.347177870547625
 10
189.0616410700398
 20
6.347177870547597
 10
189.0616415170746
 20
-12.8750443516746
 10
180.7283077367064
 20
-12.8750443516746
 10
180.7283077367064
 20
-15.8750443516746
 10
172.3949744033731
 20
-15.8750443516746
 10
172.3949744033731
 20
-12.8750443516746
 10
164.0616410700398
 20
-12.8750443516746
 10
164.0616410700398
 20
-15.8750443516746
 10
155.7283077367064
 20
-15.8750443516746
 10
155.7283077367064
 20
-12.8750443516746
 10
147.3949744033731
 20
-12.8750443516746
 10
147.3949744033731
 20
-15.8750443516746
 10
139.0616410700398
 20
-15.8750443516746
 10
139.0616410700398
 20
-12.8750443516746
 10
130.7283077367065
 20
-12.8750443516746
 10
130.7283077367065
 20
-15.8750443516746
 10
122.3949744033731
 20
-15.8750443516746
 10
122.3949744033731
 20
-12.8750443516746
  0
LWPOLYLINE
  5
6D
100
AcDbEntity
  8
0
  6
ByLayer
 62
  256
370
   -1
100
AcDbPolyline
 90
    4
 70
    1
 43
0
 10
456.3721754515228
 20
145.3611859594779
 10
456.3721754515228
 20
156.0754716737636
 10
453.3721754515228
 20
156.0754716737636
 10
453.3721754515228
 20
145.3611859594779
  0
LWPOLYLINE
  5
6E
100
AcDbEntity
  8
0
  6
ByLayer
 62
  256
370
   -1
100
AcDbPolyline
 90
    4
 70
    1
 43
0
 10
456.3721754515228
 20
123.9326145309065
 10
456.3721754515228
 20
134.6469002451922
 10
453.3721754515228
 20
134.6469002451922
 10
453.3721754515228
 20
123.9326145309065
  0
LWPOLYLINE
  5
6F
100
AcDbEntity
  8
0
  6
ByLayer
 62
  256
370
   -1
100
AcDbPolyline
 90
    4
 70
    1
 43
0
 10
456.3721754515228
 20
102.504043102335
 10
456.3721754515228
 20
113.2183288166208
 10
453.3721754515228
 20
113.2183288166208
 10
453.3721754515228
 20
102.504043102335
  0
LWPOLYLINE
  5
70
100
AcDbEntity
  8
0
  6
ByLayer
 62
  256
370
   -1
100
AcDbPolyline
 90
    4
 70
    1
 43
0
 10
456.3721750044879
 20
91.78975738804937
 10
456.3721750044879
 20
94.78975738804934
 10
453.3721750044879
 20
94.78975738804937
 10
453.3721750044879
 20
91.78975738804937
  0
LWPOLYLINE
  5
71
100
AcDbEntity
  8
0
  6
ByLayer
 62
  256
370
   -1
100
AcDbPolyline
 90
    4
 70
    1
 43
0
 10
470.0388421181894
 20
97.78975738804934
 10
470.0388421181894
 20
100.7897573880493
 10
461.7055087848561
 20
100.7897573880493
 10
461.7055087848561
 20
97.78975738804934
  0
LWPOLYLINE
  5
72
100
AcDbEntity
  8
0
  6
ByLayer
 62
  256
370
   -1
100
AcDbPolyline
 90
    4
 70
    1
 43
0
 10
486.7055087848561
 20
97.78975738804934
 10
486.7055087848561
 20
100.7897573880493
 10
478.3721754515228
 20
100.7897573880493
 10
478.3721754515228
 20
97.78975738804934
  0
LWPOLYLINE
  5
73
100
AcDbEntity
  8
0
  6
ByLayer
 62
  256
370
   -1
100
AcDbPolyline
 90
    4
 70
    1
 43
0
 10
503.3721754515227
 20
97.78975738804934
 10
503.3721754515227
 20
100.7897573880493
 10
495.0388421181894
 20
100.7897573880493
 10
495.0388421181894
 20
97.78975738804934
  0
LWPOLYLINE
  5
74
100
AcDbEntity
  8
0
  6
ByLayer
 62
  256
370
   -1
100
AcDbPolyline
 90
    4
 70
    1
 43
0
 10
520.0388421181895
 20
97.78975738804934
 10
520.0388421181895
 20
100.7897573880493
 10
511.7055087848562
 20
100.7897573880493
 10
511.7055087848562
 20
97.78975738804934
  0
LWPOLYLINE
  5
75
100
AcDbEntity
  8
0
  6
ByLayer
 62
  256
370
   -1
100
AcDbPolyline
 90
   16
 70
    1
 43
0
 10
438.3721754515228
 20
178.7897573880493
 42
-0.4142135623730938
 10
441.3721754515228
 20
181.7897573880493
 10
447.2831860161161
 20
181.7897573880493
 42
0.2294157338705613
 10
534.4611648869295
 20
181.7897573880493
 10
540.3721754515227
 20
181.7897573880493
 42
-0.4142135623730955
 10
543.3721754515227
 20
178.7897573880493
 10
543.3721754515227
 20
172.8787468234559
 42
0.2294157338705609
 10
543.3721754515227
 20
85.70076795264268
 10
543.3721754515227
 20
79.78975738804938
 42
-0.414213562373094
 10
540.3721754515227
 20
76.78975738804937
 10
534.4611648869294
 20
76.7897573880494
 42
0.2294157338705612
 10
447.2831860161161
 20
76.7897573880494
 10
441.3721754515228
 20
76.78975738804935
 42
-0.4142135623730896
 10
438.3721754515228
 20
79.78975738804937
 10
438.3721754515228
 20
85.70076795264274
 42
0.2294157338705613
 10
438.3721754515228
 20
172.878746823456
  0
LWPOLYLINE
  5
76
100
AcDbEntity
  8
0
  6
ByLayer
 62
  256
370
   -1
100
AcDbPolyline
 90
    4
 70
    1
 43
0
 10
528.3721754515227
 20
156.0754716737636
 10
525.3721754515227
 20
156.0754716737636
 10
525.3721754515227
 20
145.3611859594779
 10
528.3721754515227
 20
145.3611859594779
  0
LWPOLYLINE
  5
77
100
AcDbEntity
  8
0
  6
ByLayer
 62
  256
370
   -1
100
AcDbPolyline
 90
    4
 70
    1
 43
0
 10
528.3721754515227
 20
134.6469002451922
 10
525.3721754515227
 20
134.6469002451922
 10
525.3721754515227
 20
123.9326145309065
 10
528.3721754515227
 20
123.9326145309065
  0
LWPOLYLINE
  5
78
100
AcDbEntity
  8
0
  6
ByLayer
 62
  256
370
   -1
100
AcDbPolyline
 90
    4
 70
    1
 43
0
 10
528.3721754515227
 20
113.2183288166208
 10
525.3721754515227
 20
113.2183288166208
 10
525.3721754515227
 20
102.504043102335
 10
528.3721754515227
 20
102.504043102335
  0
LWPOLYLINE
  5
79
100
AcDbEntity
  8
0
  6
ByLayer
 62
  256
370
   -1
100
AcDbPolyline
 90
    4
 70
    1
 43
0
 10
520.0388421181895
 20
163.7897573880493
 10
520.0388421181895
 20
166.7897573880493
 10
511.7055087848562
 20
166.7897573880493
 10
511.7055087848562
 20
163.7897573880493
  0
LWPOLYLINE
  5
7A
100
AcDbEntity
  8
0
  6
ByLayer
 62
  256
370
   -1
100
AcDbPolyline
 90
    4
 70
    1
 43
0
 10
503.3721754515227
 20
163.7897573880493
 10
503.3721754515227
 20
166.7897573880493
 10
495.0388421181894
 20
166.7897573880493
 10
495.0388421181894
 20
163.7897573880493
  0
LWPOLYLINE
  5
7B
100
AcDbEntity
  8
0
  6
ByLayer
 62
  256
370
   -1
100
AcDbPolyline
 90
    4
 70
    1
 43
0
 10
486.7055087848561
 20
163.7897573880493
 10
486.7055087848561
 20
166.7897573880493
 10
478.3721754515228
 20
166.7897573880493
 10
478.3721754515228
 20
163.7897573880493
  0
LWPOLYLINE
  5
7C
100
AcDbEntity
  8
0
  6
ByLayer
 62
  256
370
   -1
100
AcDbPolyline
 90
    4
 70
    1
 43
0
 10
470.0388421181895
 20
163.7897573880493
 10
470.0388421181895
 20
166.7897573880493
 10
461.7055087848561
 20
166.7897573880493
 10
461.7055087848561
 20
163.7897573880493
  0
LWPOLYLINE
  5
7D
100
AcDbEntity
  8
0
  6
ByLayer
 62
  256
370
   -1
100
AcDbPolyline
 90
    4
 70
    1
 43
0
 10
470.0388421181895
 20
91.78975738804937
 10
470.0388421181895
 20
94.78975738804937
 10
461.7055087848561
 20
94.78975738804937
 10
461.7055087848561
 20
91.78975738804937
  0
LWPOLYLINE
  5
7E
100
AcDbEntity
  8
0
  6
ByLayer
 62
  256
370
   -1
100
AcDbPolyline
 90
    4
 70
    1
 43
0
 10
486.7055087848561
 20
91.78975738804937
 10
486.7055087848561
 20
94.78975738804937
 10
478.3721754515228
 20
94.78975738804937
 10
478.3721754515228
 20
91.78975738804937
  0
LWPOLYLINE
  5
7F
100
AcDbEntity
  8
0
  6
ByLayer
 62
  256
370
   -1
100
AcDbPolyline
 90
    4
 70
    1
 43
0
 10
503.3721754515227
 20
91.78975738804937
 10
503.3721754515227
 20
94.78975738804934
 10
495.0388421181894
 20
94.78975738804934
 10
495.0388421181894
 20
91.78975738804937
  0
LWPOLYLINE
  5
80
100
AcDbEntity
  8
0
  6
ByLayer
 62
  256
370
   -1
100
AcDbPolyline
 90
    4
 70
    1
 43
0
 10
520.0388421181895
 20
91.78975738804934
 10
520.0388421181895
 20
94.78975738804934
 10
511.7055087848562
 20
94.78975738804934
 10
511.7055087848562
 20
91.78975738804934
  0
LWPOLYLINE
  5
81
100
AcDbEntity
  8
0
  6
ByLayer
 62
  256
370
   -1
100
AcDbPolyline
 90
   58
 70
    1
 43
0
 10
431.8187311897005
 20
-16.59471188639736
 10
431.8187311897005
 20
61.40528811360264
 10
428.8187311897005
 20
61.40528811360264
 10
428.8187311897005
 20
-13.59471188639736
 10
424.1044454754148
 20
-13.59471188639736
 10
424.1044454754148
 20
-16.59471188639736
 10
413.3901597611291
 20
-16.59471188639736
 10
413.3901597611291
 20
-13.59471188639736
 10
402.6758740468434
 20
-13.59471188639736
 10
402.6758740468434
 20
-16.59471188639736
 10
391.9615883325577
 20
-16.59471188639736
 10
391.9615883325577
 20
-13.59471188639736
 10
381.247302618272
 20
-13.59471188639736
 10
381.247302618272
 20
-16.59471188639736
 10
370.5330169039863
 20
-16.59471188639736
 10
370.5330169039863
 20
-13.59471188639736
 10
362.8187311897005
 20
-13.59471188639736
 10
362.8187311897005
 20
5.627510335824851
 10
359.8187311897005
 20
5.627510335824859
 10
359.8187311897005
 20
27.84973255804708
 10
362.8187311897005
 20
27.84973255804708
 10
362.8187311897005
 20
50.07195478026928
 10
359.8187311897005
 20
50.07195478026929
 10
359.8187311897005
 20
72.29417700249151
 10
362.8187311897005
 20
72.29417700249151
 10
362.8187311897005
 20
94.51639922471371
 10
359.8187311897005
 20
94.51639922471371
 10
359.8187311897005
 20
116.738621446936
 10
362.8187311897005
 20
116.738621446936
 10
362.8187311897005
 20
138.9608436691581
 10
359.8187311897005
 20
138.9608436691581
 10
359.8187311897005
 20
161.1830658913804
 10
362.8187311897005
 20
161.1830658913804
 10
362.8187311897005
 20
180.4052881136026
 10
370.5330169039863
 20
180.4052881136026
 10
370.5330169039863
 20
183.4052881136026
 10
381.247302618272
 20
183.4052881136026
 10
381.247302618272
 20
180.4052881136026
 10
391.9615883325577
 20
180.4052881136026
 10
391.9615883325577
 20
183.4052881136026
 10
402.6758740468434
 20
183.4052881136026
 10
402.6758740468434
 20
180.4052881136026
 10
413.3901597611291
 20
180.4052881136026
 10
413.3901597611291
 20
183.4052881136026
 10
424.1044454754148
 20
183.4052881136026
 10
424.1044454754148
 20
180.4052881136026
 10
431.8187311897005
 20
180.4052881136026
 10
431.8187311897005
 20
161.1830658913803
 10
434.8187311897005
 20
161.1830658913804
 10
434.8187311897005
 20
138.9608436691581
 10
431.8187311897005
 20
138.9608436691581
 10
431.8187311897005
 20
116.7386214469359
 10
434.8187311897005
 20
116.738621446936
 10
434.8187311897005
 20
94.51639922471371
 10
431.8187311897005
 20
94.51639922471371
 10
431.8187311897005
 20
72.29417700249144
 10
434.8187311897005
 20
72.29417700249151
 10
434.8187311897005
 20
-16.59471188639736
  0
LWPOLYLINE
  5
82
100
AcDbEntity
  8
0
  6
ByLayer
 62
  256
370
   -1
100
AcDbPolyline
 90
    4
 70
    1
 43
0
 10
424.3187311897005
 20
139.4052881136026
 10
424.3187311897005
 20
142.4052881136026
 10
416.8187311897005
 20
142.4052881136026
 10
416.8187311897005
 20
139.4052881136026
  0
LWPOLYLINE
  5
83
100
AcDbEntity
  8
0
  6
ByLayer
 62
  256
370
   -1
100
AcDbPolyline
 90
    4
 70
    1
 43
0
 10
370.3187311897005
 20
142.4052881136026
 10
370.3187311897005
 20
139.4052881136026
 10
377.8187311897005
 20
139.4052881136026
 10
377.8187311897005
 20
142.4052881136026
  0
LWPOLYLINE
  5
84
100
AcDbEntity
  8
0
  6
ByLayer
 62
  256
370
   -1
100
AcDbPolyline
 90
    8
 70
    1
 43
0
 10
412.3187311897006
 20
110.4052881136026
 10
412.3187311897005
 20
139.4052881136026
 10
382.3187311897005
 20
139.4052881136026
 10
382.3187311897007
 20
110.4052881136026
 10
391.9615883325577
 20
110.4052881136026
 10
391.9615883325577
 20
113.4052881136026
 10
402.6758740468434
 20
113.4052881136026
 10
402.6758740468434
 20
110.4052881136026
  0
CIRCLE
  5
85
100
AcDbEntity
  8
0
  6
ByLayer
 62
  256
370
   -1
100
AcDbCircle
 10
419.8187311897005
 20
100.4052881136026
 40
2.5
  0
ENDSEC
  0
SECTION
  2
OBJECTS
  0
DICTIONARY
  5
C
330
0
100
AcDbDictionary
281
    1
  3
ACAD_GROUP
350
D
  0
DICTIONARY
  5
D
330
C
100
AcDbDictionary
281
    1
  0
ENDSEC
  0
EOF
